<svg width="29" height="29" viewBox="0 0 29 29" fill="none" xmlns="http://www.w3.org/2000/svg">
<g clip-path="url(#clip0)">
<path d="M25.6245 23.5847L24.3473 7.4908C24.2677 6.45395 23.3909 5.6417 22.351 5.6417H19.8282V5.52831C19.8282 2.47997 17.3483 0 14.2999 0C11.2516 0 8.77161 2.47997 8.77161 5.52831V5.6417H6.24891C5.20898 5.6417 4.33205 6.45389 4.25273 7.48863L2.97512 23.5869C2.87625 24.8758 3.3234 26.159 4.20184 27.1074C5.08028 28.0558 6.32554 28.5998 7.61829 28.5998H20.9815C22.2742 28.5998 23.5195 28.0559 24.398 27.1074C25.2764 26.159 25.7235 24.8758 25.6245 23.5847ZM10.4468 5.52831C10.4468 3.40371 12.1754 1.67521 14.2999 1.67521C16.4245 1.67521 18.153 3.40377 18.153 5.52831V5.6417H10.4468V5.52831ZM23.1689 25.9691C22.5982 26.5853 21.8214 26.9246 20.9815 26.9246H7.61835C6.77845 26.9246 6.00167 26.5853 5.43091 25.9691C4.8602 25.3529 4.58124 24.5524 4.64536 23.7172L5.92286 7.61889C5.93582 7.44952 6.07904 7.31692 6.24891 7.31692H8.77161V9.38007C8.77161 9.84264 9.14665 10.2177 9.60922 10.2177C10.0718 10.2177 10.4468 9.84264 10.4468 9.38007V7.31692H18.153V9.38007C18.153 9.84264 18.5281 10.2177 18.9906 10.2177C19.4532 10.2177 19.8282 9.84264 19.8282 9.38007V7.31692H22.351C22.5208 7.31692 22.664 7.44958 22.6772 7.62112L23.9544 23.7149C24.0187 24.5524 23.7396 25.3529 23.1689 25.9691Z" fill="#F68B1E"/>
<path d="M18.0735 14.2043C17.7465 13.8772 17.2161 13.8772 16.8891 14.2043L13.149 17.9444L11.7108 16.5063C11.3838 16.1792 10.8534 16.1792 10.5263 16.5063C10.1992 16.8334 10.1992 17.3637 10.5263 17.6908L12.5567 19.7212C12.7203 19.8848 12.9346 19.9666 13.1489 19.9666C13.3632 19.9666 13.5776 19.8848 13.7411 19.7212L18.0734 15.3889C18.4006 15.0618 18.4006 14.5314 18.0735 14.2043Z" fill="#F68B1E"/>
</g>
<defs>
<clipPath id="clip0">
<rect width="28.5998" height="28.5998" fill="white"/>
</clipPath>
</defs>
</svg>
