<svg width="24" height="25" viewBox="0 0 24 25" fill="none" xmlns="http://www.w3.org/2000/svg">
<g clip-path="url(#clip0)">
<path d="M11.871 0.948242C5.32535 0.948242 0 6.27366 0 12.8194C0 19.365 5.32535 24.6903 11.871 24.6903C18.4167 24.6903 23.7421 19.365 23.7421 12.8194C23.7421 6.27366 18.4167 0.948242 11.871 0.948242ZM11.871 22.532C6.5154 22.532 2.15837 18.1749 2.15837 12.8194C2.15837 7.46379 6.5154 3.10661 11.871 3.10661C17.2267 3.10661 21.5837 7.46379 21.5837 12.8194C21.5837 18.1749 17.2266 22.532 11.871 22.532Z" fill="#F68B1E"/>
<path d="M11.8709 5.98486C11.0776 5.98486 10.4323 6.63065 10.4323 7.42443C10.4323 8.21748 11.0776 8.86269 11.8709 8.86269C12.6642 8.86269 13.3095 8.21748 13.3095 7.42443C13.3095 6.63065 12.6642 5.98486 11.8709 5.98486Z" fill="#F68B1E"/>
<path d="M11.871 11.021C11.275 11.021 10.7918 11.5042 10.7918 12.1002V18.5753C10.7918 19.1713 11.275 19.6545 11.871 19.6545C12.467 19.6545 12.9502 19.1713 12.9502 18.5753V12.1002C12.9502 11.5042 12.467 11.021 11.871 11.021Z" fill="#F68B1E"/>
</g>
<defs>
<clipPath id="clip0">
<rect width="23.7421" height="23.7421" fill="white" transform="translate(0 0.948242)"/>
</clipPath>
</defs>
</svg>
