<svg width="30" height="30" viewBox="0 0 30 30" fill="none" xmlns="http://www.w3.org/2000/svg">
<g clip-path="url(#clip0)">
<path d="M28.8123 6.61942L15.1911 0.0436816C15.0703 -0.0145605 14.9297 -0.0145605 14.809 0.0436816L1.18777 6.61942C1.0359 6.69272 0.939392 6.84653 0.939392 7.01517V22.9848C0.939392 23.1535 1.0359 23.3073 1.18777 23.3806L14.8089 29.9563C14.8693 29.9854 14.9347 30 15 30C15.0653 30 15.1307 29.9854 15.1911 29.9563L28.8123 23.3806C28.9641 23.3073 29.0606 23.1535 29.0606 22.9848V7.01522C29.0606 6.84647 28.9641 6.69278 28.8123 6.61942ZM15 0.927451L27.6104 7.01517L23.9549 8.77989C23.9318 8.76226 23.9073 8.74597 23.8805 8.73302L11.3558 2.68673L15 0.927451ZM10.3633 3.1836L22.9553 9.26247L20.3763 10.5075L7.78953 4.43112L10.3633 3.1836ZM23.25 10.0961V14.6984L20.841 15.8614V11.2591L23.25 10.0961ZM28.1817 22.7091L15.4395 28.8604V13.8667L18.4789 12.3994C18.6975 12.2939 18.7891 12.0312 18.6836 11.8126C18.578 11.5941 18.3154 11.5023 18.0968 11.6079L15 13.1029L13.7815 12.5147C13.5629 12.409 13.3002 12.5008 13.1947 12.7193C13.0892 12.9379 13.1808 13.2006 13.3994 13.3061L14.5606 13.8667V28.8604L1.8183 22.709V7.7153L11.5214 12.3996C11.583 12.4293 11.6481 12.4434 11.7121 12.4434C11.8755 12.4434 12.0324 12.3519 12.1082 12.1949C12.2137 11.9764 12.1221 11.7136 11.9035 11.6081L2.38965 7.01517L6.75517 4.90767L19.956 11.2805C19.9579 11.2832 19.9601 11.2856 19.9621 11.2882V16.5616C19.9621 16.7128 20.0398 16.8534 20.1679 16.9339C20.2391 16.9785 20.3202 17.0011 20.4016 17.0011C20.4668 17.0011 20.5321 16.9866 20.5926 16.9574L23.8805 15.3701C24.0324 15.2968 24.1289 15.1431 24.1289 14.9744V9.67192L28.1817 7.71536V22.7091Z" fill="#F68B1E"/>
<path d="M5.44486 21.0047L3.44594 20.0397C3.22727 19.9341 2.96465 20.0258 2.85912 20.2444C2.75359 20.4629 2.84523 20.7257 3.06379 20.8312L5.06271 21.7962C5.1243 21.8259 5.18939 21.84 5.25344 21.84C5.4168 21.84 5.57371 21.7485 5.64947 21.5915C5.75506 21.3729 5.66342 21.1103 5.44486 21.0047Z" fill="#F68B1E"/>
<path d="M7.28455 19.8072L3.44871 17.9554C3.23009 17.8499 2.96742 17.9415 2.86189 18.1602C2.75642 18.3787 2.84806 18.6414 3.06662 18.747L6.90246 20.5988C6.96404 20.6285 7.02914 20.6426 7.09318 20.6426C7.25654 20.6426 7.41345 20.5511 7.48922 20.3941C7.59474 20.1754 7.5031 19.9127 7.28455 19.8072Z" fill="#F68B1E"/>
</g>
<defs>
<clipPath id="clip0">
<rect width="30" height="30" fill="white"/>
</clipPath>
</defs>
</svg>
