<svg width="31" height="31" viewBox="0 0 31 31" fill="none" xmlns="http://www.w3.org/2000/svg">
<path d="M22.7332 7.2332H24.7999M9.29987 1.0332H21.6999C26.2654 1.0332 29.9665 4.73432 29.9665 9.29987V21.6999C29.9665 26.2654 26.2654 29.9665 21.6999 29.9665H9.29987C4.73432 29.9665 1.0332 26.2654 1.0332 21.6999V9.29987C1.0332 4.73432 4.73432 1.0332 9.29987 1.0332ZM15.4999 21.6999C12.0757 21.6999 9.29987 18.924 9.29987 15.4999C9.29987 12.0757 12.0757 9.29987 15.4999 9.29987C18.924 9.29987 21.6999 12.0757 21.6999 15.4999C21.6999 18.924 18.924 21.6999 15.4999 21.6999Z" stroke="#303841" stroke-width="2.06667"/>
</svg>
