<svg width="14" height="24" viewBox="0 0 14 24" fill="none" xmlns="http://www.w3.org/2000/svg">
<path d="M13.6717 6.83584C13.6717 3.06665 10.605 0 6.83584 0C3.06665 0 0 3.06665 0 6.83584C0 10.1612 2.38726 12.9395 5.53779 13.5475V14.5526H5.22791C5.07705 14.5526 4.95479 14.6748 4.95479 14.8257V16.276V22.2759V23.7261C4.95479 23.877 5.07732 23.9992 5.22791 23.9992H8.44405C8.59491 23.9992 8.71717 23.877 8.71717 23.7261V22.2759V16.276V14.826C8.71717 14.6748 8.59491 14.5526 8.44405 14.5526H8.1339V13.5475C11.2844 12.9395 13.6717 10.1615 13.6717 6.83584ZM0.546509 6.83584C0.546509 3.36781 3.36782 0.546505 6.83584 0.546505C10.3039 0.546505 13.1252 3.36781 13.1252 6.83584C13.1252 10.3039 10.3039 13.1254 6.83584 13.1254C3.36782 13.1254 0.546509 10.3039 0.546509 6.83584ZM5.50103 16.5494H8.17066V22.003H5.50103V16.5494ZM8.17066 23.453H5.50103V22.5495H8.17066V23.453ZM8.17066 16.0028H5.50103V15.0994H5.80763C5.80872 15.0994 5.80981 15.0996 5.8109 15.0996H7.86079C7.86188 15.0996 7.86296 15.0994 7.86405 15.0994H8.17094L8.17066 16.0028ZM7.5874 14.5529H6.08402V13.6303C6.331 13.6575 6.58179 13.6717 6.83584 13.6717C7.0899 13.6717 7.34042 13.6573 7.5874 13.6303V14.5529Z" fill="black"/>
<path d="M12.3216 6.83587C12.3216 3.81115 9.86082 1.3501 6.83583 1.3501C3.81111 1.3501 1.35005 3.81115 1.35005 6.83587C1.35005 9.86086 3.81111 12.3216 6.83583 12.3216C9.86082 12.3219 12.3216 9.86086 12.3216 6.83587ZM1.89629 6.83587C1.89629 4.11232 4.112 1.89633 6.83583 1.89633C9.55965 1.89633 11.7754 4.11232 11.7754 6.83587C11.7754 9.55943 9.55938 11.7754 6.83583 11.7754C4.112 11.7757 1.89629 9.5597 1.89629 6.83587Z" fill="black"/>
<path d="M8.93037 5.60665C8.93037 6.76175 7.99094 7.70119 6.83584 7.70119C6.68498 7.70119 6.56272 7.82345 6.56272 7.9743V9.64977C6.56272 9.80063 6.68498 9.92289 6.83584 9.92289C6.98669 9.92289 7.10895 9.80063 7.10895 9.64977V8.23326C8.43724 8.0963 9.47661 6.97033 9.47661 5.60638C9.47661 4.15011 8.29183 2.96533 6.83556 2.96533C5.3793 2.96533 4.19452 4.15011 4.19452 5.60638C4.19452 5.75723 4.31678 5.8795 4.46763 5.8795C4.61849 5.8795 4.74075 5.75723 4.74075 5.60638C4.74075 4.45155 5.68019 3.51184 6.83529 3.51184C7.99039 3.51184 8.93037 4.45182 8.93037 5.60665Z" fill="black"/>
<path d="M6.83585 11.0164C7.027 11.0164 7.18195 10.8615 7.18195 10.6703C7.18195 10.4792 7.027 10.3242 6.83585 10.3242C6.64471 10.3242 6.48976 10.4792 6.48976 10.6703C6.48976 10.8615 6.64471 11.0164 6.83585 11.0164Z" fill="black"/>
</svg>
