<svg width="16" height="14" viewBox="0 0 16 14" fill="none" xmlns="http://www.w3.org/2000/svg">
<path d="M8 13L7.64645 13.3536C7.84171 13.5488 8.15829 13.5488 8.35355 13.3536L8 13ZM2.03553 7.03553L1.68198 7.38909H1.68198L2.03553 7.03553ZM7.03553 2.03553L6.68198 2.38909L7.03553 2.03553ZM8 3L7.64645 3.35355C7.84171 3.54882 8.15829 3.54882 8.35355 3.35355L8 3ZM8.96447 2.03553L8.61091 1.68198V1.68198L8.96447 2.03553ZM8.35355 12.6464L2.38909 6.68198L1.68198 7.38909L7.64645 13.3536L8.35355 12.6464ZM13.6109 6.68198L7.64645 12.6464L8.35355 13.3536L14.318 7.38909L13.6109 6.68198ZM6.68198 2.38909L7.64645 3.35355L8.35355 2.64645L7.38909 1.68198L6.68198 2.38909ZM8.35355 3.35355L9.31802 2.38909L8.61091 1.68198L7.64645 2.64645L8.35355 3.35355ZM11.4645 0.5C10.3942 0.5 9.36772 0.925171 8.61091 1.68198L9.31802 2.38909C9.88729 1.81981 10.6594 1.5 11.4645 1.5V0.5ZM14.5 4.53553C14.5 5.34061 14.1802 6.11271 13.6109 6.68198L14.318 7.38909C15.0748 6.63228 15.5 5.60582 15.5 4.53553H14.5ZM15.5 4.53553C15.5 2.30677 13.6932 0.5 11.4645 0.5V1.5C13.1409 1.5 14.5 2.85905 14.5 4.53553H15.5ZM4.53553 1.5C5.34061 1.5 6.11271 1.81981 6.68198 2.38909L7.38909 1.68198C6.63228 0.925171 5.60582 0.5 4.53553 0.5V1.5ZM1.5 4.53553C1.5 2.85905 2.85905 1.5 4.53553 1.5V0.5C2.30677 0.5 0.5 2.30677 0.5 4.53553H1.5ZM2.38909 6.68198C1.81981 6.11271 1.5 5.34061 1.5 4.53553H0.5C0.5 5.60582 0.92517 6.63228 1.68198 7.38909L2.38909 6.68198Z" fill="#DC001A"/>
</svg>
