<svg width="30" height="30" viewBox="0 0 30 30" fill="none" xmlns="http://www.w3.org/2000/svg">
<path d="M27.2872 19.9651V19.654H27.2087L27.1179 19.8677L27.0276 19.654H26.9487V19.9651H27.0044V19.7305L27.0893 19.933H27.147L27.2319 19.73V19.9651H27.2872ZM26.7893 19.9651V19.7071H26.8899V19.6545H26.6333V19.7071H26.734V19.9651H26.7893Z" fill="#F79410"/>
<path d="M18.3855 21.3008H11.6087V8.71582H18.3855V21.3008Z" fill="#FF5F00"/>
<path d="M12.0421 15.006C12.0421 12.4531 13.1989 10.179 15.0002 8.71349C13.6829 7.64184 12.0205 7.00221 10.2137 7.00221C5.9364 7.00221 2.46915 10.5856 2.46915 15.006C2.46915 19.4264 5.9364 23.0098 10.2137 23.0098C12.0205 23.0098 13.6829 22.3701 15.0002 21.2985C13.1989 19.833 12.0421 17.5589 12.0421 15.006Z" fill="#EB001B"/>
<path d="M27.5284 15.0038C27.5284 19.4242 24.0611 23.0076 19.7838 23.0076C17.977 23.0076 16.3146 22.3679 14.9968 21.2963C16.7986 19.8308 17.9554 17.5567 17.9554 15.0038C17.9554 12.4509 16.7986 10.1768 14.9968 8.71129C16.3146 7.63964 17.977 7.00001 19.7838 7.00001C24.0611 7.00001 27.5284 10.5834 27.5284 15.0038Z" fill="#F79E1B"/>
</svg>
