<svg width="27" height="27" viewBox="0 0 27 27" fill="none" xmlns="http://www.w3.org/2000/svg">
<g clip-path="url(#clip0)">
<path d="M4.185 14.7425H18.3863C19.0632 14.7425 19.612 14.1937 19.612 13.5168C19.612 12.8398 19.0632 12.291 18.3863 12.291H4.185L5.76983 10.7063C6.24853 10.2276 6.24853 9.4515 5.76983 8.9728C5.29129 8.49409 4.51514 8.49409 4.03636 8.9728L0.359312 12.6498C0.330874 12.6782 0.304071 12.7079 0.278575 12.7389C0.272365 12.7465 0.267053 12.7547 0.261006 12.7624C0.242293 12.7862 0.223906 12.8101 0.207072 12.8353C0.202169 12.8426 0.198165 12.8504 0.193344 12.8578C0.17651 12.8841 0.160003 12.9107 0.14513 12.9384C0.14227 12.9439 0.1399 12.9497 0.13704 12.9551C0.121596 12.9851 0.106723 13.0155 0.09373 13.0469C0.0920957 13.0507 0.0909516 13.0548 0.089399 13.0588C0.076079 13.0918 0.0637397 13.1252 0.0532798 13.1596C0.0518906 13.1639 0.0511552 13.1684 0.0499294 13.1728C0.0400416 13.2066 0.0309709 13.2407 0.024025 13.2756C0.021982 13.2859 0.0210831 13.2966 0.0192036 13.3071C0.0141371 13.336 0.00907065 13.365 0.00621053 13.3945C0.00204294 13.4349 0 13.4758 0 13.5168C0 13.5578 0.00204294 13.5987 0.00621053 13.6392C0.00907065 13.6691 0.0143006 13.6983 0.0192853 13.7274C0.0210831 13.7376 0.021982 13.748 0.024025 13.758C0.0310527 13.7932 0.0400416 13.8276 0.0500111 13.8617C0.0512369 13.8657 0.0519724 13.87 0.0531981 13.874C0.0637397 13.9085 0.076079 13.9423 0.0895624 13.9756C0.0910333 13.9792 0.0920957 13.9831 0.0936483 13.9867C0.106723 14.0183 0.121677 14.0488 0.137285 14.079C0.139982 14.0843 0.14227 14.0899 0.145049 14.0952C0.160085 14.123 0.176673 14.1498 0.193752 14.1764C0.198328 14.1836 0.202251 14.1912 0.206991 14.1982C0.223906 14.2235 0.242456 14.2475 0.261088 14.2714C0.267053 14.279 0.272365 14.2871 0.278493 14.2947C0.304071 14.3256 0.330874 14.3554 0.35923 14.3837L4.03627 18.0608C4.27563 18.3002 4.58934 18.4198 4.90305 18.4198C5.21677 18.4198 5.53048 18.3002 5.76975 18.0608C6.24845 17.5821 6.24845 16.806 5.76975 16.3273L4.185 14.7425Z" fill="#DD0136"/>
<path d="M16.94 3.48975C13.5941 3.48975 10.4812 5.14959 8.61271 7.92971C8.23518 8.49151 8.38456 9.25312 8.94636 9.63074C9.50825 10.0083 10.2698 9.85906 10.6475 9.29708C12.0596 7.19572 14.412 5.94119 16.94 5.94119C21.117 5.94127 24.5153 9.3395 24.5153 13.5166C24.5153 17.6936 21.117 21.0919 16.94 21.0919C14.4194 21.0919 12.0709 19.843 10.6577 17.7512C10.2786 17.1902 9.51683 17.0428 8.95576 17.4217C8.39485 17.8007 8.24727 18.5626 8.62628 19.1235C10.4961 21.8911 13.6039 23.5434 16.94 23.5434C22.4687 23.5434 26.9668 19.0454 26.9668 13.5166C26.9668 7.98773 22.4687 3.48975 16.94 3.48975Z" fill="#DD0136"/>
</g>
<defs>
<clipPath id="clip0">
<rect width="26.9668" height="26.9668" fill="white" transform="translate(0 0.0332031)"/>
</clipPath>
</defs>
</svg>
