<svg width="27" height="28" viewBox="0 0 27 28" fill="none" xmlns="http://www.w3.org/2000/svg">
<g clip-path="url(#clip0)">
<path d="M24.4639 4.55614C21.5632 1.79584 16.8418 1.79584 13.9402 4.55552L13.3369 5.12859L12.7341 4.55578C9.8322 1.79574 5.11143 1.79605 2.20948 4.55578C0.784631 5.91103 0 7.70863 0 9.61694C0 11.5259 0.784631 13.3232 2.20969 14.679L12.6926 24.6312C12.8729 24.8028 13.105 24.8883 13.3368 24.8883C13.5686 24.8883 13.8004 24.8025 13.981 24.6309L24.4639 14.679C25.8887 13.3235 26.6736 11.5259 26.6736 9.61725C26.6736 7.70863 25.8887 5.91134 24.4639 4.55614ZM23.1742 13.3219L13.3368 22.6617L3.49971 13.3222C2.44991 12.3239 1.87184 11.008 1.87184 9.61725C1.87184 8.22647 2.44991 6.91056 3.49971 5.91228C4.59474 4.87029 6.03292 4.34963 7.47142 4.34963C8.91024 4.34963 10.349 4.87091 11.4441 5.9129L12.6919 7.09811C13.0532 7.44158 13.6201 7.44158 13.9813 7.09811L15.2295 5.91228C17.4199 3.82861 20.9835 3.82861 23.1739 5.91228C24.2234 6.91061 24.8018 8.22647 24.8018 9.61725C24.8018 11.008 24.2234 12.3236 23.1742 13.3219Z" fill="#F68B1E"/>
</g>
<defs>
<clipPath id="clip0">
<rect width="26.6736" height="26.6736" fill="white" transform="translate(0 0.350586)"/>
</clipPath>
</defs>
</svg>
