<svg width="25" height="25" viewBox="0 0 25 25" fill="none" xmlns="http://www.w3.org/2000/svg">
<path d="M1.63135 0.593994L0.0349731 1.07291L5.21314 18.3335H24.9998V7.50012C24.9998 5.19893 23.1343 3.33345 20.8332 3.33345H2.45319L1.63135 0.593994Z" fill="white"/>
<path fill-rule="evenodd" clip-rule="evenodd" d="M9.16665 20.0001C7.78593 20.0001 6.66665 21.1194 6.66665 22.5001C6.66665 23.8808 7.78593 25.0001 9.16665 25.0001C10.5474 25.0001 11.6666 23.8808 11.6666 22.5001C11.6666 21.1194 10.5474 20.0001 9.16665 20.0001ZM8.33331 22.5001C8.33331 22.0399 8.70641 21.6668 9.16665 21.6668C9.62688 21.6668 9.99998 22.0399 9.99998 22.5001C9.99998 22.9604 9.62688 23.3335 9.16665 23.3335C8.70641 23.3335 8.33331 22.9604 8.33331 22.5001Z" fill="white"/>
<path fill-rule="evenodd" clip-rule="evenodd" d="M20.8333 20.0001C19.4526 20.0001 18.3333 21.1194 18.3333 22.5001C18.3333 23.8808 19.4526 25.0001 20.8333 25.0001C22.214 25.0001 23.3333 23.8808 23.3333 22.5001C23.3333 21.1194 22.214 20.0001 20.8333 20.0001ZM20 22.5001C20 22.0399 20.3731 21.6668 20.8333 21.6668C21.2935 21.6668 21.6666 22.0399 21.6666 22.5001C21.6666 22.9604 21.2935 23.3335 20.8333 23.3335C20.3731 23.3335 20 22.9604 20 22.5001Z" fill="white"/>
</svg>
