<svg width="17" height="17" viewBox="0 0 17 17" fill="none" xmlns="http://www.w3.org/2000/svg">
<g clip-path="url(#clip0)">
<path d="M16.3551 6.38035L16.3559 6.38035C16.3805 6.38031 16.4116 6.3901 16.4409 6.41987C16.4652 6.44464 16.4856 6.48128 16.4943 6.52575C16.4856 6.56316 16.4684 6.59413 16.4481 6.61621L16.3667 6.69329L11.8372 10.1924L11.56 10.4065L11.6666 10.7402L13.4275 16.2528L13.4275 16.2528L13.4287 16.2565C13.4405 16.2922 13.4413 16.3323 13.4309 16.3691C13.4205 16.4057 13.4013 16.4311 13.383 16.4457L13.3594 16.4646L13.3391 16.4853C13.3224 16.4787 13.3056 16.4693 13.2894 16.4564L13.2894 16.4564L13.2837 16.452L8.80434 13.0154L8.49999 12.7819L8.19564 13.0154L3.71627 16.452L3.71576 16.4524C3.697 16.4668 3.67755 16.4775 3.65805 16.4849C3.65497 16.4826 3.6518 16.48 3.64858 16.4768L3.63329 16.4621L3.6168 16.4487C3.59744 16.4329 3.57772 16.4062 3.56703 16.3685L3.08603 16.5051L3.56703 16.3685C3.5563 16.3307 3.557 16.2895 3.56877 16.2525C3.56877 16.2525 3.56878 16.2525 3.56879 16.2524L5.32911 10.7407L5.43665 10.4041L5.15512 10.1904L0.567815 6.70841L0.567877 6.70833L0.559747 6.70242C0.549577 6.69502 0.538081 6.68306 0.528349 6.66537C0.518574 6.6476 0.511566 6.62573 0.509451 6.60138L0.506774 6.57054L0.500313 6.54027C0.500118 6.53936 0.499978 6.53819 0.499987 6.53687L0.499991 6.53543C0.50012 6.4829 0.519877 6.43932 0.544688 6.4126C0.568194 6.38728 0.591888 6.38049 0.608227 6.38035H6.22685H6.59492L6.70427 6.0289L8.39784 0.585821C8.41036 0.551863 8.42988 0.528135 8.44861 0.514056C8.46758 0.499809 8.4855 0.495239 8.49999 0.495239C8.51448 0.495239 8.53241 0.499809 8.55137 0.514056C8.57011 0.528136 8.58962 0.551866 8.60215 0.585829L10.2957 6.0289L10.4051 6.38035H10.7731L16.3551 6.38035Z" stroke="#F68B1E"/>
</g>
<defs>
<clipPath id="clip0">
<rect width="17" height="17" fill="white"/>
</clipPath>
</defs>
</svg>
