<svg width="54" height="48" viewBox="0 0 54 48" fill="none" xmlns="http://www.w3.org/2000/svg">
<path fill-rule="evenodd" clip-rule="evenodd" d="M7 0H47V40H7V0Z" fill="#C4C4C4" fill-opacity="0.01"/>
<g filter="url(#filter0_d)">
<path d="M15 17C15 15.8954 15.8954 15 17 15H37C38.1046 15 39 15.8954 39 17V27C39 28.1046 38.1046 29 37 29H17C15.8954 29 15 28.1046 15 27V17Z" fill="white"/>
</g>
<path fill-rule="evenodd" clip-rule="evenodd" d="M17.7598 11.5C17.2075 11.5 16.7598 11.9477 16.7598 12.5C16.7598 13.0523 17.2075 13.5 17.7598 13.5L36.5598 13.5C37.112 13.5 37.5598 13.0523 37.5598 12.5C37.5598 11.9477 37.1121 11.5 36.5598 11.5L17.7598 11.5ZM17 17H37V27H17L17 17ZM15 17C15 15.8954 15.8954 15 17 15H37C38.1046 15 39 15.8954 39 17V27C39 28.1046 38.1046 29 37 29H17C15.8954 29 15 28.1046 15 27V17ZM21.3392 18.6279C21.0295 19.0483 20.7512 19.3114 20.3263 19.5175C19.9782 19.6739 19.7358 20.0237 19.7358 20.43V23.6281C19.7358 24.0051 19.9445 24.3334 20.2525 24.5038L20.2519 24.505C20.7879 24.7976 21.0889 25.0458 21.3113 25.3947L21.3143 25.3928C21.4915 25.6725 21.8038 25.8582 22.1595 25.8582H31.8404C32.1718 25.8582 32.4655 25.697 32.6475 25.4487L32.6475 25.4487C32.9674 25.0112 33.2512 24.7419 33.6935 24.5315L33.6935 24.5315C34.0309 24.3708 34.2641 24.0267 34.2641 23.6281V20.43C34.2641 20.0413 34.0422 19.7043 33.7182 19.5389C33.2049 19.2561 32.9108 19.0131 32.6928 18.6768C32.5168 18.3908 32.2009 18.2 31.8404 18.2H22.1595C21.82 18.2 21.52 18.3692 21.3392 18.6279ZM32.2641 23.0479V20.9973C31.9303 20.777 31.6185 20.5214 31.3409 20.2H22.6431C22.3852 20.4991 22.0937 20.7718 21.7358 21.0107V23.0635C22.068 23.2833 22.3783 23.5381 22.6547 23.8582H31.3572C31.615 23.5593 31.9064 23.2867 32.2641 23.0479ZM24 21.0502C23.4477 21.0502 23 21.4979 23 22.0502C23 22.6025 23.4477 23.0502 24 23.0502H30C30.5523 23.0502 31 22.6025 31 22.0502C31 21.4979 30.5523 21.0502 30 21.0502H24Z" fill="#3E4958"/>
<defs>
<filter id="filter0_d" x="0" y="4" width="54" height="44" filterUnits="userSpaceOnUse" color-interpolation-filters="sRGB">
<feFlood flood-opacity="0" result="BackgroundImageFix"/>
<feColorMatrix in="SourceAlpha" type="matrix" values="0 0 0 0 0 0 0 0 0 0 0 0 0 0 0 0 0 0 127 0" result="hardAlpha"/>
<feOffset dy="4"/>
<feGaussianBlur stdDeviation="7.5"/>
<feColorMatrix type="matrix" values="0 0 0 0 0 0 0 0 0 0 0 0 0 0 0 0 0 0 0.15 0"/>
<feBlend mode="normal" in2="BackgroundImageFix" result="effect1_dropShadow"/>
<feBlend mode="normal" in="SourceGraphic" in2="effect1_dropShadow" result="shape"/>
</filter>
</defs>
</svg>
