<svg width="20" height="20" viewBox="0 0 20 20" fill="none" xmlns="http://www.w3.org/2000/svg">
<path d="M3.13902 18.4545L3.71224 18.1679H3.71224L3.13902 18.4545ZM16.0874 18.4545L16.6607 18.7411L16.6607 18.7411L16.0874 18.4545ZM0.901348 7.69031H18.3251V6.40855H0.901348V7.69031ZM17.9447 7.30988V7.87227H19.2264V7.30988H17.9447ZM15.8758 17.9444H3.35066V19.2262H15.8758V17.9444ZM1.28178 7.87227V7.30988H1.91331e-05V7.87227H1.28178ZM3.71224 18.1679C2.1139 14.9712 1.28178 11.4463 1.28178 7.87227H1.91331e-05C1.91331e-05 11.6453 0.878469 15.3664 2.5658 18.7411L3.71224 18.1679ZM3.35066 17.9444C3.50379 17.9444 3.64376 18.0309 3.71224 18.1679L2.5658 18.7411C2.71444 19.0384 3.01829 19.2262 3.35066 19.2262V17.9444ZM15.5142 18.1679C15.5827 18.0309 15.7227 17.9444 15.8758 17.9444V19.2262C16.2082 19.2262 16.512 19.0384 16.6607 18.7411L15.5142 18.1679ZM17.9447 7.87227C17.9447 11.4463 17.1126 14.9712 15.5142 18.1679L16.6607 18.7411C18.348 15.3664 19.2264 11.6453 19.2264 7.87227H17.9447ZM18.3251 7.69031C18.115 7.69031 17.9447 7.51998 17.9447 7.30988H19.2264C19.2264 6.81209 18.8229 6.40855 18.3251 6.40855V7.69031ZM0.901348 6.40855C0.403557 6.40855 1.91331e-05 6.81209 1.91331e-05 7.30988H1.28178C1.28178 7.51999 1.11146 7.69031 0.901348 7.69031V6.40855ZM5.03573 7.37916L8.88102 0.970355L7.78192 0.310895L3.93663 6.7197L5.03573 7.37916ZM10.3454 0.970355L14.1907 7.37916L15.2898 6.7197L11.4445 0.310895L10.3454 0.970355Z" fill="#303841"/>
<path d="M8.88104 0.970496L5.61813 6.40869H13.6084L10.3455 0.970496L11.4446 0.311035L15.1032 6.40869H18.3251C18.8229 6.40869 19.2264 6.81223 19.2264 7.31002V7.87241C19.2264 11.6454 18.348 15.3666 16.6606 18.7412C16.512 19.0385 16.2081 19.2263 15.8758 19.2263H3.35064C3.01827 19.2263 2.71442 19.0385 2.56578 18.7412C0.878449 15.3666 0 11.6454 0 7.87241V7.31002C0 6.81223 0.403538 6.40869 0.901329 6.40869H4.12335L7.78194 0.311035L8.88104 0.970496Z" fill="#F68B1E"/>
</svg>
