<svg width="20" height="20" viewBox="0 0 20 20" fill="none" xmlns="http://www.w3.org/2000/svg">
<path d="M9.61326 0.640869L10.0303 0.154276C9.79033 -0.0514407 9.43618 -0.0514407 9.19618 0.154276L9.61326 0.640869ZM0.64093 8.33144L0.223851 7.84484L4.96507e-05 8.03667V8.33144H0.64093ZM7.04974 18.5855V19.2264C7.40368 19.2264 7.69062 18.9395 7.69062 18.5855H7.04974ZM12.1768 18.5855H11.5359C11.5359 18.9395 11.8228 19.2264 12.1768 19.2264V18.5855ZM18.5856 8.33144H19.2265V8.03667L19.0027 7.84484L18.5856 8.33144ZM1.92269 19.2264H7.04974V17.9446H1.92269V19.2264ZM19.0027 7.84484L10.0303 0.154276L9.19618 1.12746L18.1685 8.81803L19.0027 7.84484ZM9.19618 0.154276L0.223851 7.84484L1.05801 8.81803L10.0303 1.12746L9.19618 0.154276ZM7.69062 18.5855V14.7402H6.40885V18.5855H7.69062ZM11.5359 14.7402V18.5855H12.8177V14.7402H11.5359ZM12.1768 19.2264H17.3038V17.9446H12.1768V19.2264ZM19.2265 17.3038V8.33144H17.9447V17.3038H19.2265ZM4.96507e-05 8.33144V17.3038H1.28181V8.33144H4.96507e-05ZM9.61326 12.8176C10.6751 12.8176 11.5359 13.6784 11.5359 14.7402H12.8177C12.8177 12.9705 11.383 11.5358 9.61326 11.5358V12.8176ZM9.61326 11.5358C7.84351 11.5358 6.40885 12.9705 6.40885 14.7402H7.69062C7.69062 13.6784 8.55141 12.8176 9.61326 12.8176V11.5358ZM17.3038 19.2264C18.3657 19.2264 19.2265 18.3656 19.2265 17.3038H17.9447C17.9447 17.6577 17.6578 17.9446 17.3038 17.9446V19.2264ZM1.92269 17.9446C1.56874 17.9446 1.28181 17.6577 1.28181 17.3038H4.96507e-05C4.96507e-05 18.3656 0.860846 19.2264 1.92269 19.2264V17.9446Z" fill="#303841"/>
<path d="M10.0303 0.154288C9.79028 -0.0514292 9.43613 -0.0514292 9.19613 0.154288L0 8.03668V17.3038C0 18.3656 0.860796 19.2264 1.92264 19.2264H7.04969C7.40363 19.2264 7.69057 18.9395 7.69057 18.5855V14.7403C7.69057 13.6784 8.55136 12.8176 9.61321 12.8176C10.6751 12.8176 11.5358 13.6784 11.5358 14.7403V18.5855C11.5358 18.9395 11.8228 19.2264 12.1767 19.2264H17.3038C18.3656 19.2264 19.2264 18.3656 19.2264 17.3038V8.03668L10.0303 0.154288Z" fill="#F68B1E"/>
</svg>
