<svg width="20" height="20" viewBox="0 0 20 20" fill="none" xmlns="http://www.w3.org/2000/svg">
<path d="M4.01115 8.01278L3.38796 7.94354L4.01115 8.01278ZM3.03577 16.7912L3.65896 16.8604L3.03577 16.7912ZM17.775 16.7912L17.1518 16.8604L17.775 16.7912ZM16.7996 8.01278L17.4228 7.94354V7.94354L16.7996 8.01278ZM3.38796 7.94354L2.41258 16.7219L3.65896 16.8604L4.63434 8.08203L3.38796 7.94354ZM4.28216 18.8107H16.5286V17.5567H4.28216V18.8107ZM18.3981 16.7219L17.4228 7.94354L16.1764 8.08203L17.1518 16.8604L18.3981 16.7219ZM15.5532 6.27019H5.25753V7.52424H15.5532V6.27019ZM17.4228 7.94354C17.3169 6.9909 16.5117 6.27019 15.5532 6.27019V7.52424C15.8727 7.52424 16.1411 7.76448 16.1764 8.08203L17.4228 7.94354ZM16.5286 18.8107C17.6497 18.8107 18.522 17.8362 18.3981 16.7219L17.1518 16.8604C17.193 17.2318 16.9023 17.5567 16.5286 17.5567V18.8107ZM2.41258 16.7219C2.28877 17.8362 3.16101 18.8107 4.28216 18.8107V17.5567C3.90844 17.5567 3.61769 17.2318 3.65896 16.8604L2.41258 16.7219ZM4.63434 8.08203C4.66962 7.76448 4.93803 7.52424 5.25753 7.52424V6.27019C4.29903 6.27019 3.4938 6.9909 3.38796 7.94354L4.63434 8.08203ZM7.27023 5.01614V4.38911H6.01618V5.01614H7.27023ZM13.5405 4.38911V5.01614H14.7945V4.38911H13.5405ZM10.4054 1.25398C12.1369 1.25398 13.5405 2.65763 13.5405 4.38911H14.7945C14.7945 1.96503 12.8294 -7.33137e-05 10.4054 -7.33137e-05V1.25398ZM7.27023 4.38911C7.27023 2.65763 8.67388 1.25398 10.4054 1.25398V-7.33137e-05C7.98128 -7.33137e-05 6.01618 1.96503 6.01618 4.38911H7.27023Z" fill="#303841"/>
</svg>
