<svg width="35" height="35" viewBox="0 0 35 35" fill="none" xmlns="http://www.w3.org/2000/svg">
<g clip-path="url(#clip0)">
<path d="M10.6664 25.2939C10.2891 25.2939 9.98291 25.6002 9.98291 25.9775C9.98291 26.3548 10.2891 26.661 10.6664 26.661C11.0437 26.661 11.35 26.3548 11.35 25.9775C11.35 25.6002 11.0437 25.2939 10.6664 25.2939Z" fill="#F68B1E"/>
<path d="M30.7717 12.9915L34.7996 8.96359C34.9691 8.79414 35.0374 8.54835 34.9797 8.31581C34.9221 8.08321 34.7469 7.89784 34.5179 7.82716L24.7093 4.79983C23.8251 1.95767 21.1971 0.00463867 18.185 0.00463867C15.385 0.00463867 12.8809 1.71106 11.8444 4.28521L0.483298 7.82778C0.254932 7.899 0.0803602 8.08451 0.0231492 8.31684C-0.0340617 8.5491 0.0342907 8.79449 0.203463 8.96366L4.33735 13.0975L1.73011 17.443C1.62342 17.6208 1.60325 17.8374 1.67516 18.0319C1.74707 18.2264 1.90339 18.3776 2.10011 18.4432L5.88157 19.7036V30.2163C5.88157 30.5012 6.05833 30.7563 6.32511 30.8563C8.63726 31.7233 17.2281 34.9453 17.2743 34.9616C17.4099 35.0094 17.5627 35.0159 17.7116 34.9677C17.7136 34.967 17.7156 34.9666 17.7176 34.9659L30.021 30.8648C30.3001 30.7718 30.4884 30.5105 30.4884 30.2163V19.4221L34.5211 18.1549C34.7491 18.0832 34.9231 17.8977 34.9801 17.6656C35.037 17.4335 34.9685 17.1885 34.7996 17.0195L30.7717 12.9915ZM25.0202 6.83988C25.0202 6.6662 25.0129 6.49292 24.9999 6.3202L33.0309 8.799L29.6203 12.2095L24.0477 10.3522C24.6787 9.29742 25.0202 8.08034 25.0202 6.83988ZM13.0126 5.0608C13.7714 2.85425 15.85 1.37169 18.185 1.37169C20.7004 1.37169 22.8821 3.07312 23.4904 5.5092C23.5984 5.94207 23.6532 6.38978 23.6532 6.83988C23.6532 8.10946 23.2319 9.29941 22.4346 10.2816C21.3904 11.5695 19.8415 12.3081 18.185 12.3081C16.3944 12.3081 14.715 11.4292 13.692 9.95648C13.0541 9.04014 12.7168 7.96236 12.7168 6.83988C12.7168 6.22942 12.8163 5.63086 13.0126 5.0608ZM1.96942 8.79633L11.4226 5.8487C11.3751 6.17529 11.3498 6.50612 11.3498 6.83981C11.3498 7.94035 11.6105 9.00631 12.1074 9.9681L5.38266 12.2095L1.96942 8.79633ZM3.34077 17.4157L5.50207 13.8134L16.4769 17.4717L14.3157 21.074C13.1438 20.6834 4.59203 17.8327 3.34077 17.4157ZM16.818 33.3312L7.24862 29.7427V20.1593C14.7776 22.6557 14.41 22.5795 14.6196 22.5795C14.8546 22.5795 15.0796 22.4579 15.2059 22.2475L16.818 19.5605V33.3312ZM17.5015 16.3722L7.35962 12.9917L12.8821 11.1509C14.1746 12.7399 16.1204 13.6751 18.185 13.6751C20.0949 13.6751 21.8899 12.8891 23.181 11.5043L27.6433 12.9916L17.5015 16.3722ZM29.1214 29.7237L18.185 33.3692V19.0411L20.6082 22.0698C20.7844 22.2901 21.0779 22.3794 21.3468 22.2949L29.1214 19.8518V29.7237ZM21.3833 20.8506L18.6476 17.4312L29.6203 13.7736L33.0355 17.1888L21.3833 20.8506Z" fill="#F68B1E"/>
<path d="M15.0077 26.8115L13.4876 26.2414C13.1341 26.109 12.7401 26.288 12.6075 26.6414C12.475 26.9949 12.6541 27.3889 13.0075 27.5215L14.5277 28.0915C14.8819 28.2243 15.2754 28.0444 15.4077 27.6915C15.5403 27.3381 15.3612 26.944 15.0077 26.8115Z" fill="#F68B1E"/>
<path d="M15.0076 29.7315L10.9064 28.1936C10.553 28.0611 10.159 28.2401 10.0264 28.5936C9.89379 28.947 10.0729 29.3411 10.4264 29.4736L14.5275 31.0116C14.6066 31.0412 14.6877 31.0553 14.7675 31.0553C15.0442 31.0553 15.3046 30.886 15.4076 30.6116C15.5402 30.258 15.3611 29.8641 15.0076 29.7315Z" fill="#F68B1E"/>
<path d="M22.0862 4.30519C21.8193 4.03821 21.3865 4.03828 21.1195 4.30519L17.5017 7.92309L16.618 7.03936C16.3511 6.77244 15.9182 6.77244 15.6513 7.03936C15.3843 7.30627 15.3843 7.73908 15.6513 8.00607L17.0184 9.37305C17.2853 9.63996 17.7181 9.63996 17.9851 9.37305L22.0862 5.2719C22.3531 5.00499 22.3531 4.57218 22.0862 4.30519Z" fill="#F68B1E"/>
</g>
<defs>
<clipPath id="clip0">
<rect width="34.9964" height="34.9964" fill="white" transform="translate(0.00354004 0.00366211)"/>
</clipPath>
</defs>
</svg>
