<svg width="26" height="26" viewBox="0 0 26 26" fill="none" xmlns="http://www.w3.org/2000/svg">
<path d="M4.11865 24.2134L4.87076 23.8373L4.87076 23.8373L4.11865 24.2134ZM21.1079 24.2134L21.86 24.5894L21.86 24.5894L21.1079 24.2134ZM1.18267 10.09H24.0439V8.40826H1.18267V10.09ZM23.5447 9.59086V10.3288H25.2265V9.59086H23.5447ZM20.8302 23.5441H4.39634V25.2259H20.8302V23.5441ZM1.68182 10.3288V9.59086H6.18696e-05V10.3288H1.68182ZM4.87076 23.8373C2.77362 19.643 1.68182 15.0181 1.68182 10.3288H6.18696e-05C6.18696e-05 15.2792 1.15265 20.1616 3.36655 24.5894L4.87076 23.8373ZM4.39634 23.5441C4.59725 23.5441 4.78091 23.6576 4.87076 23.8373L3.36655 24.5894C3.56157 24.9795 3.96024 25.2259 4.39634 25.2259V23.5441ZM20.3558 23.8373C20.4456 23.6576 20.6293 23.5441 20.8302 23.5441V25.2259C21.2663 25.2259 21.665 24.9795 21.86 24.5894L20.3558 23.8373ZM23.5447 10.3288C23.5447 15.0181 22.4529 19.643 20.3558 23.8373L21.86 24.5894C24.0739 20.1616 25.2265 15.2792 25.2265 10.3288H23.5447ZM24.0439 10.09C23.7682 10.09 23.5447 9.86654 23.5447 9.59086H25.2265C25.2265 8.93773 24.697 8.40826 24.0439 8.40826V10.09ZM1.18267 8.40826C0.529532 8.40826 6.18696e-05 8.93773 6.18696e-05 9.59086H1.68182C1.68182 9.86654 1.45835 10.09 1.18267 10.09V8.40826ZM6.60727 9.68177L11.6526 1.27296L10.2105 0.407703L5.16518 8.81651L6.60727 9.68177ZM13.574 1.27296L18.6193 9.68177L20.0614 8.81651L15.0161 0.407703L13.574 1.27296Z" fill="#F68B1E"/>
</svg>
