<svg width="22" height="22" viewBox="0 0 22 22" fill="none" xmlns="http://www.w3.org/2000/svg">
<g clip-path="url(#clip0)">
<path d="M17.6 0H4.4C3.7766 0 3.3 0.476595 3.3 1.1V20.9C3.3 21.5234 3.7766 22 4.4 22H14.4466L18.7 17.7466V1.1C18.7 0.476595 18.2234 0 17.6 0V0ZM17.9667 17.4534L14.6667 20.7534V18.3333C14.6667 18.1133 14.8133 17.9667 15.0333 17.9667H16.8667V17.2333H15.0333C14.4099 17.2333 13.9333 17.7099 13.9333 18.3333V21.2667H4.4C4.17997 21.2667 4.03334 21.12 4.03334 20.9V1.1C4.03334 0.879964 4.17997 0.733333 4.4 0.733333H17.6C17.82 0.733333 17.9667 0.879964 17.9667 1.1V17.4534Z" fill="#303841"/>
<path d="M8.8 2.2002H13.2V2.93353H8.8V2.2002Z" fill="#303841"/>
<path d="M6.23332 12.1001H15.7667V12.8334H6.23332V12.1001Z" fill="#303841"/>
<path d="M6.23332 13.9333H15.7667V14.6667H6.23332V13.9333Z" fill="#303841"/>
<path d="M6.23332 15.7666H15.7667V16.4999H6.23332V15.7666Z" fill="#303841"/>
<path d="M6.23332 17.6001H12.4667V18.3334H6.23332V17.6001Z" fill="#303841"/>
<path d="M14.3 9.75353V5.28013L11 3.63013L7.7 5.28013V9.75353L11 11.4035L14.3 9.75353ZM11 6.89342L10.0833 6.34342L12.2833 5.09679L13.2 5.53687L11 6.89342ZM11.4766 4.69342L9.3867 5.90353L8.8 5.53687L11 4.43687L11.4766 4.69342ZM8.43333 6.16009L10.6333 7.51683V9.64342H11.3667V7.51683L13.5667 6.16009V9.31346L11 10.5968L8.43333 9.31346V6.16009Z" fill="#303841"/>
</g>
<defs>
<clipPath id="clip0">
<rect width="22" height="22" fill="white"/>
</clipPath>
</defs>
</svg>
