<svg width="25" height="25" viewBox="0 0 25 25" fill="none" xmlns="http://www.w3.org/2000/svg">
<g clip-path="url(#clip0)">
<rect x="0.85907" y="0.47908" width="23.619" height="23.619" fill="white" fill-opacity="0.01"/>
<path d="M18.8714 12.5302C17.9595 9.80084 15.509 7.84223 12.6208 7.84223C11.5869 7.84223 10.6118 8.09741 9.7414 8.54596L8.25633 7.06091L7.15149 8.16575L16.9852 17.9995L18.09 16.8946L16.817 15.6216C17.744 14.8163 18.4631 13.7522 18.8714 12.5302L18.8714 12.5302ZM12.6208 9.4049C14.3469 9.4049 15.7461 10.8041 15.7461 12.5302C15.7461 13.1097 15.5817 13.6466 15.3046 14.1092L14.13 12.9345C14.1648 12.8057 14.1834 12.6703 14.1834 12.5302C14.1834 11.6671 13.4838 10.9675 12.6208 10.9675C12.4812 10.9675 12.3472 10.9886 12.2187 11.0232L11.0514 9.85591C11.5133 9.57943 12.0422 9.4049 12.6208 9.4049Z" fill="#F68B1E"/>
<path d="M12.6208 15.6555C10.8947 15.6555 9.49549 14.2563 9.49549 12.5302C9.49549 12.2521 9.54343 11.9874 9.61161 11.7307L7.86502 9.98413C7.20846 10.7031 6.69197 11.5671 6.37018 12.5302C7.28212 15.2596 9.73256 17.2182 12.6208 17.2182C13.3598 17.2182 14.0694 17.0883 14.7326 16.8517L13.4203 15.5394C13.1636 15.6076 12.8989 15.6555 12.6208 15.6555Z" fill="#F68B1E"/>
</g>
<defs>
<clipPath id="clip0">
<rect width="23.619" height="23.619" fill="white" transform="matrix(-1 0 0 1 24.478 0.47908)"/>
</clipPath>
</defs>
</svg>
