<svg width="18" height="17" viewBox="0 0 18 17" fill="none" xmlns="http://www.w3.org/2000/svg">
<path d="M16.9491 4.86264L16.3883 4.48687C15.56 3.93955 14.6718 3.48886 13.741 3.14361L13.3793 1.6994C13.2585 1.21638 12.9806 0.787241 12.5891 0.479573C12.1977 0.171905 11.715 0.00318968 11.2172 0H6.7303C6.23002 7.5746e-05 5.74413 0.167364 5.34984 0.475277C4.95555 0.78319 4.67549 1.21406 4.55417 1.6994L4.20644 3.14361C3.27759 3.48925 2.39129 3.93993 1.56479 4.48687L1.00394 4.86264C0.695578 5.06704 0.442552 5.34452 0.267392 5.67038C0.0922321 5.99623 0.000374848 6.36035 0 6.7303V14.5823C0 15.1773 0.236361 15.7479 0.657086 16.1687C1.07781 16.5894 1.64844 16.8257 2.24343 16.8257H7.85202V14.5823H2.24343V6.7303L2.80429 6.35452C3.80448 5.69478 4.90493 5.20138 6.06288 4.89349L6.7303 2.24343H11.2172L11.879 4.89349C13.0389 5.20081 14.1413 5.69423 15.1432 6.35452L15.704 6.7303H17.9475C17.9477 6.36086 17.8567 5.99708 17.6825 5.67126C17.5084 5.34544 17.2565 5.06768 16.9491 4.86264Z" fill="#F68B1E"/>
<path d="M8.97387 11.7779C10.2129 11.7779 11.2173 10.7735 11.2173 9.53445C11.2173 8.29543 10.2129 7.29102 8.97387 7.29102C7.73486 7.29102 6.73044 8.29543 6.73044 9.53445C6.73044 10.7735 7.73486 11.7779 8.97387 11.7779Z" fill="#F68B1E"/>
<path d="M16.3604 8.97363C15.9396 8.97396 15.5361 9.14141 15.2387 9.43915L10.7518 13.926C10.3319 14.3464 10.0959 14.9162 10.0956 15.5104V16.8256H11.4109C11.7056 16.8259 11.9974 16.768 12.2698 16.6555C12.5421 16.5429 12.7896 16.3777 12.9981 16.1694L17.485 11.6826C17.7067 11.4606 17.8576 11.1779 17.9188 10.8702C17.9799 10.5624 17.9485 10.2435 17.8285 9.95362C17.7084 9.66375 17.5052 9.41595 17.2444 9.24153C16.9836 9.0671 16.677 8.97388 16.3632 8.97363H16.3604Z" fill="#F68B1E"/>
</svg>
