<svg width="36" height="36" viewBox="0 0 36 36" fill="none" xmlns="http://www.w3.org/2000/svg">
<g clip-path="url(#clip0)">
<path d="M35.1465 18.2668L30.1257 15.3577L35.1465 12.4492C35.3291 12.3437 35.4416 12.149 35.4419 11.9382C35.4416 11.7274 35.3291 11.5327 35.1465 11.4273L23.9236 4.92982C23.7408 4.82431 23.5156 4.82431 23.3329 4.92982L22.1515 5.61324C21.8625 5.76445 21.7508 6.12137 21.902 6.41043C22.0532 6.6995 22.4101 6.81121 22.6992 6.66C22.7139 6.65232 22.7283 6.64397 22.7423 6.63511L23.6283 6.12299L33.6699 11.9382L28.9444 14.6755L21.8114 10.5454L22.343 9.78935C22.5299 9.52199 22.4647 9.1537 22.1974 8.96683C22.0974 8.8969 21.9782 8.85969 21.8563 8.86021H20.0842C20.0787 3.96915 16.1151 0.00553763 11.224 0H5.31722C4.99101 0 4.72654 0.264477 4.72654 0.590681C4.72654 0.916884 4.99101 1.18136 5.31722 1.18136H11.224C15.4629 1.18623 18.898 4.62134 18.9029 8.86021V9.45089C18.9029 9.77709 19.1673 10.0416 19.4935 10.0416H20.7222L17.7215 14.3275L14.7208 10.0416H15.9494C16.2756 10.0416 16.5401 9.77709 16.5401 9.45089V8.26953C16.5382 6.31297 14.9525 4.72736 12.996 4.72544H10.0426C9.71638 4.72544 9.45191 4.98992 9.45191 5.31612C9.45191 5.64233 9.71638 5.90681 10.0426 5.90681H12.996C14.3009 5.90681 15.3587 6.96464 15.3587 8.26953V8.86021H13.5867C13.2605 8.86036 12.9961 9.12498 12.9963 9.45118C12.9964 9.57213 13.0336 9.69019 13.1029 9.78935L13.6316 10.5454L6.4985 14.6755L1.77306 11.9382L9.26702 7.5991C9.55609 7.44789 9.6678 7.09097 9.51659 6.80191C9.36537 6.51284 9.00845 6.40106 8.71939 6.55227C8.7047 6.55995 8.6903 6.56829 8.67627 6.57715L0.296358 11.4273C0.0141604 11.591 -0.081899 11.9524 0.0817933 12.2346C0.133404 12.3236 0.207387 12.3976 0.296358 12.4492L5.31714 15.3577L0.296358 18.2662C0.0141604 18.4299 -0.081899 18.7913 0.0817933 19.0735C0.133404 19.1625 0.207387 19.2365 0.296358 19.2881L5.90782 22.5368V28.3527C5.90805 28.5635 6.02057 28.7582 6.20316 28.8636L17.4261 35.3611C17.4397 35.3694 17.4556 35.3723 17.4698 35.3794C17.484 35.3865 17.5023 35.3936 17.5194 35.4001C17.649 35.4544 17.795 35.4544 17.9246 35.4001C17.9418 35.3936 17.9577 35.3871 17.9742 35.3794C17.9908 35.3717 18.0044 35.3694 18.018 35.3611L29.2409 28.8636C29.423 28.7579 29.535 28.5632 29.535 28.3527V22.5374L35.1465 19.2887C35.4287 19.125 35.5248 18.7636 35.3611 18.4814C35.3094 18.3924 35.2355 18.3184 35.1465 18.2668ZM1.77306 18.7771L6.4985 16.0399L16.5401 21.8552L11.8146 24.5924L1.77306 18.7771ZM17.1308 33.8259L7.08919 28.0124V23.2214L11.5193 25.7856C11.702 25.8911 11.9272 25.8911 12.11 25.7856L17.1308 22.8794V33.8259ZM17.7214 21.1729L7.67987 15.3577L14.3144 11.5183L17.2377 15.6962C17.4248 15.9634 17.7932 16.0282 18.0603 15.841C18.1167 15.8015 18.1657 15.7525 18.2052 15.6962L21.1314 11.5183L27.766 15.3577L17.7214 21.1729ZM28.3537 28.0124L18.3121 33.8259V22.8794L23.3329 25.7856C23.5156 25.8911 23.7408 25.8911 23.9236 25.7856L28.3537 23.2214V28.0124ZM23.6282 24.5924L18.9028 21.8552L28.9444 16.0399L33.6698 18.7771L23.6282 24.5924Z" fill="#F68B1E"/>
<path d="M7.67841 4.72559H6.49705C6.17085 4.72559 5.90637 4.99006 5.90637 5.31627C5.90637 5.64247 6.17085 5.90695 6.49705 5.90695H7.67841C8.00462 5.90695 8.26909 5.64247 8.26909 5.31627C8.26909 4.99006 8.00462 4.72559 7.67841 4.72559Z" fill="#F68B1E"/>
<path d="M2.95295 0H1.77159C1.44539 0 1.18091 0.264477 1.18091 0.590681C1.18091 0.916884 1.44539 1.18136 1.77159 1.18136H2.95295C3.27915 1.18136 3.54363 0.916884 3.54363 0.590681C3.54363 0.264477 3.27915 0 2.95295 0Z" fill="#F68B1E"/>
<path d="M8.85983 2.36279H4.13438C3.80818 2.36279 3.5437 2.62727 3.5437 2.95347C3.5437 3.27968 3.80818 3.54415 4.13438 3.54415H8.85983C9.18603 3.54415 9.45051 3.27968 9.45051 2.95347C9.45051 2.62727 9.18603 2.36279 8.85983 2.36279Z" fill="#F68B1E"/>
<path d="M26.5801 25.3994C26.2539 25.3994 25.9894 25.6639 25.9894 25.9901V27.1715C25.9894 27.4977 26.2539 27.7621 26.5801 27.7621C26.9063 27.7621 27.1707 27.4977 27.1707 27.1715V25.9901C27.1707 25.6639 26.9063 25.3994 26.5801 25.3994Z" fill="#F68B1E"/>
<path d="M24.2175 26.5806C23.8913 26.5806 23.6268 26.845 23.6268 27.1712V28.3526C23.6268 28.6788 23.8913 28.9433 24.2175 28.9433C24.5437 28.9433 24.8082 28.6788 24.8082 28.3526V27.1712C24.8082 26.845 24.5437 26.5806 24.2175 26.5806Z" fill="#F68B1E"/>
</g>
<defs>
<clipPath id="clip0">
<rect width="35.4408" height="35.4408" fill="white"/>
</clipPath>
</defs>
</svg>
