<svg width="34" height="34" viewBox="0 0 34 34" fill="none" xmlns="http://www.w3.org/2000/svg">
<path d="M31.3438 11.1562H30.2812C30.1404 11.1562 30.0052 11.2122 29.9056 11.3118C29.806 11.4115 29.75 11.5466 29.75 11.6875V16.4688H28.6875V11.1562C28.6862 10.7339 28.5179 10.3293 28.2193 10.0307C27.9207 9.73208 27.5161 9.56376 27.0938 9.5625H23.9062V7.4375H29.2188C29.3596 7.4375 29.4948 7.38153 29.5944 7.2819C29.694 7.18227 29.75 7.04715 29.75 6.90625V5.84375C29.75 5.13927 29.4701 4.46364 28.972 3.9655C28.4739 3.46735 27.7982 3.1875 27.0938 3.1875H16.4688C15.7643 3.1875 15.0886 3.46735 14.5905 3.9655C14.0924 4.46364 13.8125 5.13927 13.8125 5.84375V6.90625C13.8125 7.04715 13.8685 7.18227 13.9681 7.2819C14.0677 7.38153 14.2029 7.4375 14.3438 7.4375H19.6562V9.5625H15.4594C15.3507 9.56073 15.2445 9.59429 15.1566 9.65812L9.92906 13.2812H6.90625C6.48395 13.2825 6.0793 13.4508 5.78069 13.7494C5.48208 14.0481 5.31376 14.4527 5.3125 14.875V21.7812H4.25V17C4.25 16.8591 4.19403 16.724 4.0944 16.6243C3.99477 16.5247 3.85965 16.4688 3.71875 16.4688H2.65625C2.23395 16.47 1.82931 16.6383 1.53069 16.9369C1.23208 17.2356 1.06376 17.6402 1.0625 18.0625V28.6875C1.06376 29.1098 1.23208 29.5144 1.53069 29.8131C1.82931 30.1117 2.23395 30.28 2.65625 30.2812H3.71875C3.85965 30.2812 3.99477 30.2253 4.0944 30.1257C4.19403 30.026 4.25 29.8909 4.25 29.75V24.9688H5.3125V29.2188C5.31376 29.6411 5.48208 30.0457 5.78069 30.3443C6.0793 30.6429 6.48395 30.8112 6.90625 30.8125H21.6219C21.9299 30.812 22.2311 30.7225 22.4894 30.5547C22.7477 30.387 22.9519 30.1481 23.0775 29.8669L24.7828 26.0312H28.1562C28.2971 26.0312 28.4323 25.9753 28.5319 25.8757C28.6315 25.776 28.6875 25.6409 28.6875 25.5V19.6562H29.75V24.4375C29.75 24.5784 29.806 24.7135 29.9056 24.8132C30.0052 24.9128 30.1404 24.9688 30.2812 24.9688H31.3438C31.7661 24.9675 32.1707 24.7992 32.4693 24.5006C32.7679 24.2019 32.9362 23.7973 32.9375 23.375V12.75C32.9362 12.3277 32.7679 11.9231 32.4693 11.6244C32.1707 11.3258 31.7661 11.1575 31.3438 11.1562ZM3.1875 29.2188H2.65625C2.51535 29.2188 2.38023 29.1628 2.2806 29.0632C2.18097 28.9635 2.125 28.8284 2.125 28.6875V18.0625C2.125 17.9216 2.18097 17.7865 2.2806 17.6868C2.38023 17.5872 2.51535 17.5312 2.65625 17.5312H3.1875V29.2188ZM5.3125 23.9062H4.25V22.8438H5.3125V23.9062ZM14.875 6.375V5.84375C14.8763 5.42145 15.0446 5.0168 15.3432 4.71819C15.6418 4.41958 16.0464 4.25126 16.4688 4.25H27.0938C27.5161 4.25126 27.9207 4.41958 28.2193 4.71819C28.5179 5.0168 28.6862 5.42145 28.6875 5.84375V6.375H14.875ZM22.8438 7.4375V9.5625H20.7188V7.4375H22.8438ZM27.625 24.9688H24.4375C24.3351 24.9681 24.2348 24.9974 24.1489 25.0531C24.063 25.1088 23.9952 25.1884 23.9541 25.2822L22.1053 29.4366C22.0634 29.5298 21.9955 29.6089 21.9098 29.6645C21.824 29.7201 21.7241 29.7498 21.6219 29.75H6.90625C6.76535 29.75 6.63023 29.694 6.5306 29.5944C6.43097 29.4948 6.375 29.3596 6.375 29.2188V14.875C6.375 14.7341 6.43097 14.599 6.5306 14.4993C6.63023 14.3997 6.76535 14.3438 6.90625 14.3438H10.0938C10.2021 14.3439 10.3079 14.3105 10.3966 14.2481L15.6241 10.625H27.0938C27.2346 10.625 27.3698 10.681 27.4694 10.7806C27.569 10.8802 27.625 11.0154 27.625 11.1562V24.9688ZM29.75 18.5938H28.6875V17.5312H29.75V18.5938ZM31.875 23.375C31.875 23.5159 31.819 23.651 31.7194 23.7507C31.6198 23.8503 31.4846 23.9062 31.3438 23.9062H30.8125V12.2188H31.3438C31.4846 12.2188 31.6198 12.2747 31.7194 12.3743C31.819 12.474 31.875 12.6091 31.875 12.75V23.375Z" fill="#F68B1E"/>
<path d="M14.3438 18.5938C13.8184 18.5938 13.3048 18.7495 12.868 19.0414C12.4312 19.3333 12.0907 19.7481 11.8897 20.2335C11.6887 20.7189 11.636 21.2529 11.7385 21.7682C11.841 22.2835 12.094 22.7568 12.4655 23.1283C12.837 23.4997 13.3103 23.7527 13.8255 23.8552C14.3408 23.9577 14.8749 23.9051 15.3603 23.7041C15.8456 23.503 16.2605 23.1626 16.5523 22.7257C16.8442 22.2889 17 21.7754 17 21.25C16.9992 20.5458 16.719 19.8706 16.2211 19.3727C15.7231 18.8747 15.048 18.5946 14.3438 18.5938ZM14.3438 22.8438C14.0285 22.8438 13.7204 22.7503 13.4583 22.5752C13.1962 22.4 12.9919 22.1511 12.8713 21.8599C12.7507 21.5687 12.7191 21.2482 12.7806 20.9391C12.8421 20.6299 12.9939 20.3459 13.2168 20.123C13.4397 19.9002 13.7237 19.7484 14.0328 19.6869C14.342 19.6254 14.6624 19.6569 14.9537 19.7776C15.2449 19.8982 15.4938 20.1025 15.6689 20.3646C15.844 20.6267 15.9375 20.9348 15.9375 21.25C15.9375 21.6727 15.7696 22.0781 15.4707 22.377C15.1718 22.6758 14.7664 22.8438 14.3438 22.8438Z" fill="#F68B1E"/>
<path d="M25.0325 17.5897L23.7575 17.425L24.5491 16.4103C24.6279 16.308 24.667 16.1806 24.6592 16.0517C24.6514 15.9228 24.5972 15.8011 24.5066 15.7091L23.0722 14.2747C22.9802 14.1841 22.8584 14.1298 22.7295 14.122C22.6006 14.1142 22.4732 14.1533 22.3709 14.2322L21.3563 15.0238L21.1916 13.7487C21.176 13.6201 21.114 13.5015 21.0171 13.4154C20.9202 13.3293 20.7952 13.2816 20.6656 13.2812H18.6469C18.5173 13.2816 18.3923 13.3293 18.2954 13.4154C18.1985 13.5015 18.1365 13.6201 18.1209 13.7487L17.9562 15.0238L16.9416 14.2322C16.8393 14.1533 16.7119 14.1142 16.583 14.122C16.4541 14.1298 16.3323 14.1841 16.2403 14.2747L15.1141 15.4062H13.3344C13.2048 15.4066 13.0798 15.4543 12.9829 15.5404C12.886 15.6265 12.824 15.7451 12.8084 15.8737L12.6437 17.1487L11.6291 16.3572C11.5268 16.2783 11.3994 16.2392 11.2705 16.247C11.1416 16.2548 11.0198 16.3091 10.9278 16.3997L9.49344 17.8341C9.40282 17.9261 9.34859 18.0478 9.34077 18.1767C9.33296 18.3056 9.3721 18.433 9.45094 18.5353L10.2425 19.55L8.9675 19.7147C8.83883 19.7302 8.72029 19.7923 8.63419 19.8892C8.54808 19.986 8.50036 20.111 8.5 20.2406V22.2594C8.50036 22.389 8.54808 22.514 8.63419 22.6108C8.72029 22.7077 8.83883 22.7698 8.9675 22.7853L10.2425 22.95L9.45094 23.9594C9.37203 24.0626 9.3329 24.1908 9.34071 24.3206C9.34851 24.4503 9.40272 24.5729 9.49344 24.6659L10.9278 26.1003C11.0198 26.1909 11.1416 26.2452 11.2705 26.253C11.3994 26.2608 11.5268 26.2217 11.6291 26.1428L12.6437 25.3513L12.8084 26.6262C12.824 26.7549 12.886 26.8735 12.9829 26.9596C13.0798 27.0457 13.2048 27.0934 13.3344 27.0938H15.3531C15.4827 27.0934 15.6077 27.0457 15.7046 26.9596C15.8015 26.8735 15.8635 26.7549 15.8791 26.6262L16.0438 25.3513L17.0584 26.1428C17.1607 26.2217 17.2881 26.2608 17.417 26.253C17.5459 26.2452 17.6677 26.1909 17.7597 26.1003L18.8859 24.9688H20.6656C20.7952 24.9684 20.9202 24.9207 21.0171 24.8346C21.114 24.7485 21.176 24.6299 21.1916 24.5012L21.3563 23.2263L22.3709 24.0178C22.4732 24.0967 22.6006 24.1358 22.7295 24.128C22.8584 24.1202 22.9802 24.0659 23.0722 23.9753L24.5066 22.5409C24.5972 22.4489 24.6514 22.3272 24.6592 22.1983C24.667 22.0694 24.6279 21.942 24.5491 21.8397L23.7575 20.825L25.0325 20.6603C25.1612 20.6448 25.2797 20.5827 25.3658 20.4858C25.4519 20.389 25.4996 20.264 25.5 20.1344V18.1156C25.4996 17.986 25.4519 17.861 25.3658 17.7642C25.2797 17.6673 25.1612 17.6052 25.0325 17.5897ZM17.34 25.0166L16.3359 24.2356C16.2588 24.1747 16.1659 24.1369 16.0681 24.1265C15.9704 24.1162 15.8717 24.1338 15.7834 24.1772C15.6641 24.2377 15.5397 24.2874 15.4116 24.3259C15.3153 24.3577 15.2299 24.4159 15.1651 24.4939C15.1003 24.5718 15.0587 24.6664 15.045 24.7669L14.8856 26.0312H13.8019L13.6425 24.7669C13.6288 24.6664 13.5872 24.5718 13.5224 24.4939C13.4576 24.4159 13.3722 24.3577 13.2759 24.3259C13.1478 24.2874 13.0234 24.2377 12.9041 24.1772C12.8158 24.1338 12.7171 24.1162 12.6194 24.1265C12.5216 24.1369 12.4287 24.1747 12.3516 24.2356L11.3475 25.0166L10.5772 24.2463L11.3581 23.2422C11.419 23.165 11.4569 23.0722 11.4672 22.9744C11.4775 22.8766 11.46 22.7779 11.4166 22.6897C11.3561 22.5704 11.3063 22.4459 11.2678 22.3178C11.236 22.2216 11.1778 22.1362 11.0999 22.0714C11.0219 22.0065 10.9273 21.9649 10.8269 21.9513L9.5625 21.7919V20.7081L10.8269 20.5487C10.9273 20.5351 11.0219 20.4935 11.0999 20.4286C11.1778 20.3638 11.236 20.2784 11.2678 20.1822C11.3063 20.0541 11.3561 19.9296 11.4166 19.8103C11.46 19.7221 11.4775 19.6234 11.4672 19.5256C11.4569 19.4278 11.419 19.335 11.3581 19.2578L10.5772 18.2538L11.3475 17.4834L12.3516 18.2644C12.4287 18.3253 12.5216 18.3631 12.6194 18.3735C12.7171 18.3838 12.8158 18.3662 12.9041 18.3228C13.0234 18.2623 13.1478 18.2126 13.2759 18.1741C13.3722 18.1423 13.4576 18.0841 13.5224 18.0061C13.5872 17.9282 13.6288 17.8336 13.6425 17.7331L13.8019 16.4688H14.8697L15.045 17.7384C15.0588 17.8382 15.1006 17.932 15.1654 18.0091C15.2303 18.0862 15.3156 18.1434 15.4116 18.1741C15.5397 18.2126 15.6641 18.2623 15.7834 18.3228C15.8728 18.3665 15.9728 18.3838 16.0717 18.3725C16.1705 18.3612 16.2641 18.3218 16.3412 18.2591L17.34 17.4834L18.1103 18.2538L17.3294 19.2578C17.2685 19.335 17.2306 19.4278 17.2203 19.5256C17.21 19.6234 17.2275 19.7221 17.2709 19.8103C17.3314 19.9296 17.3812 20.0541 17.4197 20.1822C17.4515 20.2784 17.5097 20.3638 17.5876 20.4286C17.6656 20.4935 17.7602 20.5351 17.8606 20.5487L19.125 20.7081V21.7919L17.8606 21.9513C17.7583 21.9701 17.663 22.016 17.5845 22.0842C17.506 22.1524 17.4473 22.2404 17.4144 22.3391L17.3878 22.4241C17.3506 22.5197 17.3081 22.6047 17.2709 22.6897C17.2275 22.7779 17.21 22.8766 17.2203 22.9744C17.2306 23.0722 17.2685 23.165 17.3294 23.2422L18.1103 24.2463L17.34 25.0166ZM19.1941 17.8341L19.0241 17.6641C19.2198 17.5799 19.4305 17.536 19.6435 17.5348C19.8566 17.5337 20.0677 17.5754 20.2644 17.6574C20.461 17.7394 20.6392 17.8601 20.7883 18.0123C20.9374 18.1645 21.0544 18.3451 21.1324 18.5434C21.2103 18.7417 21.2477 18.9536 21.2422 19.1666C21.2366 19.3796 21.1884 19.5893 21.1002 19.7833C21.0121 19.9773 20.8859 20.1516 20.7291 20.2958C20.5723 20.4401 20.3881 20.5514 20.1875 20.6231V20.2406C20.1871 20.111 20.1394 19.986 20.0533 19.8892C19.9672 19.7923 19.8487 19.7302 19.72 19.7147L18.445 19.55L19.2366 18.5353C19.3154 18.433 19.3545 18.3056 19.3467 18.1767C19.3389 18.0478 19.2847 17.9261 19.1941 17.8341ZM24.4375 19.6669L23.1731 19.8263C23.0727 19.8399 22.9781 19.8815 22.9001 19.9464C22.8222 20.0112 22.764 20.0966 22.7322 20.1928C22.6937 20.3209 22.6439 20.4454 22.5834 20.5647C22.54 20.6529 22.5225 20.7516 22.5328 20.8494C22.5431 20.9472 22.581 21.04 22.6419 21.1172L23.4228 22.1213L22.6525 22.8916L21.6484 22.1106C21.5707 22.0508 21.478 22.0137 21.3804 22.0034C21.2829 21.9931 21.1845 22.01 21.0959 22.0522C20.9766 22.1127 20.8522 22.1624 20.7241 22.2009C20.6278 22.2327 20.5424 22.2909 20.4776 22.3689C20.4128 22.4468 20.3712 22.5414 20.3575 22.6419L20.1981 23.9062H19.1941L18.445 22.95L19.72 22.7853C19.8487 22.7698 19.9672 22.7077 20.0533 22.6108C20.1394 22.514 20.1871 22.389 20.1875 22.2594V21.7281C20.5684 21.6497 20.9275 21.4886 21.2393 21.2561C21.5511 21.0237 21.808 20.7256 21.992 20.383C22.176 20.0404 22.2825 19.6615 22.3039 19.2732C22.3254 18.8849 22.2614 18.4966 22.1163 18.1358C21.9713 17.7749 21.7488 17.4503 21.4645 17.1849C21.1803 16.9195 20.8412 16.7198 20.4713 16.5998C20.1013 16.4798 19.7096 16.4425 19.3236 16.4906C18.9377 16.5386 18.567 16.6708 18.2378 16.8778L17.7597 16.3997C17.6677 16.3091 17.5459 16.2548 17.417 16.247C17.2881 16.2392 17.1607 16.2783 17.0584 16.3572L16.0384 17.1487L15.895 16.1288L16.66 15.3584L17.6641 16.1394C17.7413 16.2002 17.8341 16.2379 17.9319 16.2483C18.0296 16.2586 18.1283 16.2411 18.2166 16.1978C18.3359 16.1373 18.4603 16.0876 18.5884 16.0491C18.6847 16.0173 18.7701 15.9591 18.8349 15.8811C18.8997 15.8032 18.9413 15.7086 18.955 15.6081L19.1144 14.3438H20.1981L20.3575 15.6081C20.3712 15.7086 20.4128 15.8032 20.4776 15.8811C20.5424 15.9591 20.6278 16.0173 20.7241 16.0491C20.8522 16.0876 20.9766 16.1373 21.0959 16.1978C21.1842 16.2412 21.2829 16.2588 21.3806 16.2485C21.4784 16.2381 21.5713 16.2003 21.6484 16.1394L22.6525 15.3584L23.4228 16.1288L22.6419 17.1328C22.581 17.21 22.5431 17.3028 22.5328 17.4006C22.5225 17.4984 22.54 17.5971 22.5834 17.6853C22.6439 17.8046 22.6937 17.9291 22.7322 18.0572C22.764 18.1534 22.8222 18.2388 22.9001 18.3036C22.9781 18.3685 23.0727 18.4101 23.1731 18.4237L24.4375 18.5831V19.6669Z" fill="#F68B1E"/>
<path d="M25.5 11.6875H26.5625V12.75H25.5V11.6875Z" fill="#F68B1E"/>
<path d="M23.375 11.6875H24.4375V12.75H23.375V11.6875Z" fill="#F68B1E"/>
<path d="M7.4375 27.625H8.5V28.6875H7.4375V27.625Z" fill="#F68B1E"/>
<path d="M9.5625 27.625H10.625V28.6875H9.5625V27.625Z" fill="#F68B1E"/>
</svg>
