<svg width="28" height="28" viewBox="0 0 28 28" fill="none" xmlns="http://www.w3.org/2000/svg">
<g clip-path="url(#clip0)">
<path d="M11.5662 15.4847V4.39896C11.5662 2.48635 13.1701 0.935913 15.1487 0.935913C17.1272 0.935913 18.7311 2.48635 18.7311 4.39896V15.4797C21.8276 17.3895 22.7363 21.3641 20.7607 24.3574C19.5416 26.2045 17.4332 27.3243 15.1665 27.3284L15.1308 27.3333C11.4578 27.3267 8.48584 24.443 8.49272 20.8924C8.49698 18.7013 9.65536 16.6632 11.5662 15.4847ZM17.9469 25.6221C20.6432 24.1174 21.5669 20.7846 20.0103 18.1782C19.5155 17.3498 18.8039 16.662 17.9469 16.1837C17.7887 16.0954 17.6916 15.9319 17.6923 15.7554V4.39896C17.6923 3.03011 16.5443 1.92043 15.1283 1.92043C13.7122 1.92043 12.5643 3.03011 12.5643 4.39896V15.7554C12.565 15.9319 12.4679 16.0954 12.3097 16.1837C9.61341 17.6884 8.68966 21.0212 10.2463 23.6276C11.803 26.2339 15.2507 27.127 17.9469 25.6221Z" fill="#303841"/>
<path d="M14.6216 17.365V9.89741C14.6216 9.62556 14.8496 9.40515 15.1309 9.40515C15.4121 9.40515 15.6401 9.62556 15.6401 9.89741V17.365C17.5638 17.6317 18.8996 19.3553 18.6238 21.2149C18.3747 22.8934 16.885 24.1382 15.1309 24.1336C13.1875 24.1387 11.6077 22.6201 11.6023 20.7415C11.5975 19.0458 12.8853 17.6057 14.6216 17.365ZM15.1309 23.1441C16.5118 23.1441 17.6312 22.062 17.6312 20.7271C17.6284 19.3934 16.5106 18.3128 15.1309 18.3101C13.7499 18.3101 12.6305 19.3922 12.6305 20.7271C12.6305 22.062 13.75 23.1441 15.1309 23.1441Z" fill="#303841"/>
<path d="M6.60114 4.32019H9.78386C10.0651 4.32019 10.2931 4.5406 10.2931 4.81245C10.2931 5.0843 10.0651 5.30471 9.78386 5.30471H6.60114C6.31992 5.30471 6.09191 5.0843 6.09191 4.81245C6.09191 4.5406 6.31992 4.32019 6.60114 4.32019Z" fill="#303841"/>
<path d="M7.27843 6.78137H9.14732C9.42855 6.78137 9.65656 7.00178 9.65656 7.27363C9.65656 7.54548 9.42855 7.76589 9.14732 7.76589H7.27843C6.99721 7.76589 6.7692 7.54548 6.7692 7.27363C6.7692 7.00178 6.99721 6.78137 7.27843 6.78137Z" fill="#303841"/>
<path d="M6.60114 9.2428H9.78386C10.0651 9.2428 10.2931 9.46321 10.2931 9.73506C10.2931 10.0069 10.0651 10.2273 9.78386 10.2273H6.60114C6.31992 10.2273 6.09191 10.0069 6.09191 9.73506C6.09191 9.46321 6.31992 9.2428 6.60114 9.2428Z" fill="#303841"/>
<path d="M7.27843 11.7041H9.14732C9.42855 11.7041 9.65656 11.9245 9.65656 12.1964C9.65656 12.4682 9.42855 12.6886 9.14732 12.6886H7.27843C6.99721 12.6886 6.7692 12.4682 6.7692 12.1964C6.7692 11.9245 6.99721 11.7041 7.27843 11.7041Z" fill="#303841"/>
<path d="M6.60114 14.1654H9.78386C10.0651 14.1654 10.2931 14.3858 10.2931 14.6577C10.2931 14.9295 10.0651 15.1499 9.78386 15.1499H6.60114C6.31992 15.1499 6.09191 14.9295 6.09191 14.6577C6.09191 14.3858 6.31992 14.1654 6.60114 14.1654Z" fill="#303841"/>
</g>
<defs>
<clipPath id="clip0">
<rect width="27.3077" height="26.3974" fill="white" transform="matrix(-1 0 0 1 27.6026 0.935913)"/>
</clipPath>
</defs>
</svg>
