<svg width="37" height="13" viewBox="0 0 37 13" fill="none" xmlns="http://www.w3.org/2000/svg">
<path d="M21.8581 0.22035C20.0552 0.2435 18.2404 0.428036 16.7015 0.583315C16.6973 0.587394 16.6931 0.591568 16.689 0.595831C14.3602 0.92158 11.6333 2.60512 9.50481 3.90006C9.06081 3.96601 8.61182 4.03636 8.14056 4.12535C6.22688 4.48662 4.49038 4.9709 3.22176 5.46456C2.58746 5.71136 2.07999 5.95976 1.69481 6.21553C1.50222 6.34337 1.33412 6.46657 1.20668 6.61604C1.07925 6.76547 0.96888 6.95033 0.96888 7.17926V7.84261C0.838178 7.97612 0.743591 8.131 0.743591 8.33074V11.4848C0.743591 11.8932 1.09042 12.2357 1.49455 12.2357H4.97401C5.03231 12.2364 5.09006 12.2244 5.14323 12.2005C5.1964 12.1766 5.24371 12.1413 5.28185 12.0972C5.31999 12.0531 5.34804 12.0012 5.36405 11.9452C5.38005 11.8891 5.38363 11.8302 5.37452 11.7726C5.35913 11.6653 5.35039 11.5557 5.34949 11.4472C5.3495 10.8056 5.62382 10.1633 6.08793 9.7075C6.55207 9.25163 7.21845 8.96905 7.87773 8.96905C8.537 8.96905 9.20338 9.25163 9.66752 9.7075C10.1316 10.1633 10.406 10.8056 10.406 11.4472C10.4049 11.5557 10.3965 11.6653 10.3809 11.7726C10.3718 11.8302 10.3754 11.8891 10.3914 11.9452C10.4074 12.0012 10.4355 12.0531 10.4736 12.0972C10.5117 12.1413 10.559 12.1766 10.6122 12.2005C10.6654 12.2244 10.7231 12.2364 10.7814 12.2357H26.2387C26.297 12.2364 26.3548 12.2244 26.408 12.2005C26.4611 12.1766 26.5084 12.1413 26.5466 12.0972C26.5847 12.0531 26.6128 12.0012 26.6288 11.9452C26.6448 11.8891 26.6484 11.8302 26.6392 11.7726C26.6239 11.6653 26.6151 11.5557 26.6142 11.4472C26.6142 10.8056 26.8885 10.1634 27.3527 9.7075C27.8168 9.25163 28.4832 8.96905 29.1425 8.96905C29.7893 8.96905 30.4452 9.24062 30.9072 9.68247C31.3691 10.1242 31.6529 10.7548 31.6707 11.3846C31.6722 11.4395 31.6849 11.4935 31.7081 11.5432C31.7313 11.5929 31.7644 11.6373 31.8055 11.6737C31.8466 11.7101 31.8947 11.7376 31.9469 11.7547C31.999 11.7717 32.0541 11.7778 32.1088 11.7726L35.9136 11.3596C36.408 11.3056 36.7897 10.896 36.7897 10.3959V7.49216C36.7897 7.14968 36.56 6.90915 36.2766 6.75372V4.46328C36.2766 3.8216 35.7417 3.29929 35.1001 3.29929H31.2702L28.1537 1.45944C26.4793 0.422429 24.1761 0.190536 21.8581 0.22035ZM21.8706 1.02138C24.1236 0.992379 26.2934 1.24672 27.7281 2.1353C27.7322 2.13957 27.7364 2.14374 27.7407 2.14782L30.9698 4.05025C31.031 4.08415 31.1001 4.10141 31.17 4.10032H35.1001C35.3191 4.10032 35.4756 4.25964 35.4756 4.46328V6.99152C35.4756 7.09774 35.5178 7.19961 35.5929 7.27471C35.668 7.34982 35.7699 7.39202 35.8761 7.39203C35.9517 7.39203 35.9887 7.42848 35.9887 7.49216V10.3959C35.9887 10.4611 35.9038 10.5501 35.826 10.5586L32.3716 10.9341C32.2557 10.2453 31.9683 9.58232 31.4579 9.09421C30.8406 8.50382 30.002 8.16803 29.1425 8.16803C28.2672 8.16803 27.4104 8.52186 26.7894 9.13176C26.1715 9.73874 25.8166 10.5736 25.8132 11.4347H11.207C11.2035 10.5736 10.8487 9.7387 10.2307 9.13176C9.60981 8.52186 8.75296 8.16803 7.87773 8.16803C7.0025 8.16803 6.14564 8.52186 5.52471 9.13176C4.90676 9.7387 4.5519 10.5736 4.54846 11.4347H1.54462V8.3808C1.61259 8.34772 1.66982 8.29609 1.70969 8.23186C1.74955 8.16763 1.77043 8.09343 1.76991 8.01783V7.20429C1.77566 7.19793 1.79293 7.17355 1.81997 7.14171C1.87404 7.07831 1.98049 6.98005 2.13287 6.87888C2.43762 6.67654 2.92101 6.43691 3.52215 6.20301C4.72442 5.73517 6.41794 5.26742 8.29075 4.91386C8.78069 4.82135 9.24508 4.74326 9.70507 4.67606C9.75796 4.66953 9.80902 4.65251 9.85526 4.62599C11.9894 3.32825 14.7472 1.67444 16.7891 1.38434C16.7929 1.38396 16.7979 1.38472 16.8017 1.38434C18.3411 1.22896 20.1226 1.04382 21.8706 1.02138ZM18.6165 1.79737C17.5123 1.79737 16.1565 2.22187 15.0244 2.71104C14.4583 2.95562 13.9497 3.21558 13.56 3.462C13.3652 3.58521 13.2068 3.7045 13.0719 3.82497C12.937 3.94543 12.8203 4.05077 12.759 4.27554C12.7463 4.3077 12.7379 4.34135 12.7339 4.37567V5.05154C12.7339 5.45902 13.0702 5.8025 13.4849 5.8025H19.5552C19.6492 5.8007 19.7397 5.76586 19.8106 5.70407C19.8816 5.64228 19.9285 5.55749 19.9432 5.46456L20.4313 2.26046C20.4404 2.20287 20.4368 2.14399 20.4208 2.08793C20.4048 2.03186 20.3768 1.97997 20.3386 1.93587C20.3005 1.89177 20.2532 1.85653 20.2 1.83261C20.1468 1.80869 20.0891 1.79666 20.0308 1.79737H18.6165ZM21.7705 1.79737C21.6774 1.80897 21.5912 1.85292 21.5272 1.92155C21.4631 1.99017 21.4252 2.07912 21.4201 2.17285L21.1823 5.37695C21.1788 5.43161 21.1867 5.4864 21.2053 5.53791C21.2239 5.58943 21.2528 5.63659 21.2903 5.67647C21.3279 5.71635 21.3732 5.74811 21.4235 5.76979C21.4738 5.79147 21.528 5.8026 21.5828 5.8025H26.414C26.8287 5.8025 27.1649 5.45898 27.1649 5.05154V4.0878C27.1649 3.69147 27.1362 3.09207 26.7143 2.5984C26.2925 2.10472 25.5325 1.79737 24.2988 1.79737H21.8206C21.8039 1.79633 21.7872 1.79633 21.7705 1.79737ZM18.6165 2.5984H19.5677L19.2047 5.00147H13.535V4.50083C13.5384 4.50605 13.5572 4.47296 13.6101 4.42573C13.6942 4.35059 13.8282 4.2453 13.9981 4.13787C14.3378 3.92299 14.8155 3.68036 15.3498 3.44948C16.4185 2.98774 17.7299 2.5984 18.6165 2.5984ZM22.1835 2.5984H24.2988C25.4024 2.5984 25.8764 2.86121 26.1011 3.12407C26.3257 3.38692 26.3639 3.73582 26.3639 4.0878V5.00147H22.0083L22.1835 2.5984Z" fill="#303841"/>
</svg>
