<svg width="250" height="388" viewBox="0 0 250 388" fill="none" xmlns="http://www.w3.org/2000/svg">
<path fill-rule="evenodd" clip-rule="evenodd" d="M0 0H249.429V382.757H0V0Z" fill="white"/>
<path d="M1.52588e-05 376.765H249.429V388L241.634 383.288L233.839 388L226.045 383.288L218.25 388L210.455 383.288L202.661 388L194.866 383.288L187.071 388L179.277 383.288L171.482 388L163.688 383.288L155.893 388L148.098 383.288L140.304 388L132.509 383.288L124.714 388L116.92 383.288L109.125 388L101.33 383.288L93.5357 388L85.7411 383.288L77.9464 388L70.1518 383.288L62.3572 388L54.5625 383.288L46.7679 388L38.9732 383.288L31.1786 388L23.3839 383.288L15.5893 388L7.79466 383.288L1.52588e-05 388V376.765Z" fill="white"/>
</svg>
