<svg width="17" height="17" viewBox="0 0 17 17" fill="none" xmlns="http://www.w3.org/2000/svg">
<g clip-path="url(#clip0)">
<path d="M16.3551 5.88035H10.7731L9.07691 0.42873C9.03349 0.301582 8.95489 0.191842 8.85172 0.114323C8.74856 0.0368041 8.62579 -0.00476074 8.49999 -0.00476074C8.37419 -0.00476074 8.25143 0.0368041 8.14826 0.114323C8.04509 0.191842 7.96649 0.301582 7.92307 0.42873L6.22685 5.88035H0.607135C0.446242 5.88081 0.292061 5.94985 0.178292 6.07237C0.0645233 6.19489 0.000419465 6.36093 -7.87565e-06 6.5342C-0.000206335 6.57136 0.00359679 6.60841 0.0113254 6.64463C0.0193532 6.73709 0.0463136 6.82648 0.0902665 6.90638C0.134219 6.98627 0.194072 7.05468 0.265516 7.10668L4.85282 10.5886L3.09237 16.1007C3.05074 16.2314 3.04852 16.3729 3.08603 16.5051C3.12354 16.6372 3.19886 16.7532 3.30123 16.8365C3.39605 16.9281 3.51595 16.984 3.64285 16.9957C3.77892 16.985 3.90961 16.9341 4.02063 16.8487L8.49999 13.4121L12.9794 16.8487C13.0895 16.9358 13.2207 16.9868 13.3571 16.9957C13.4835 16.9865 13.603 16.9302 13.695 16.8365C13.7983 16.754 13.8743 16.6381 13.9119 16.5056C13.9495 16.3732 13.9467 16.2313 13.9038 16.1007L12.1428 10.588L16.6924 7.07355L16.8003 6.97126C16.9135 6.85643 16.9837 6.70097 16.9978 6.5342C16.9887 6.35735 16.917 6.19098 16.7974 6.06935C16.6779 5.94772 16.5195 5.88008 16.3551 5.88035Z" fill="#F68B1E"/>
</g>
<defs>
<clipPath id="clip0">
<rect width="17" height="17" fill="white"/>
</clipPath>
</defs>
</svg>
