<svg width="17" height="20" viewBox="0 0 17 20" fill="none" xmlns="http://www.w3.org/2000/svg">
<path d="M5.15129 4.64341C5.15129 2.81164 6.63623 1.32669 8.46801 1.32669C10.2998 1.32669 11.7847 2.81164 11.7847 4.64341V5.30676H13.1114V4.64341C13.1114 2.07893 11.0325 0 8.46801 0C5.90352 0 3.8246 2.07893 3.8246 4.64341V5.30676H5.15129V4.64341Z" fill="#F68B1E"/>
<path d="M1.04428 8.40372C1.15626 7.3959 2.00812 6.63345 3.02214 6.63345H13.9141C14.9282 6.63345 15.78 7.3959 15.892 8.40372L16.9239 17.6905C17.0549 18.8694 16.1321 19.9003 14.946 19.9003H1.99027C0.804188 19.9003 -0.118573 18.8694 0.0124075 17.6905L1.04428 8.40372Z" fill="#F68B1E"/>
</svg>
