<svg width="31" height="31" viewBox="0 0 31 31" fill="none" xmlns="http://www.w3.org/2000/svg">
<path d="M15.5001 2.06689C13.1135 2.06689 11.0064 2.91895 9.51858 4.71517C8.19188 6.31564 7.44038 9.57268 7.31576 12.2913L7.16472 12.3131L7.12066 12.3195C6.89787 12.3514 6.6323 12.3898 6.35915 12.441C5.39748 12.6252 3.57732 13.1152 3.16949 15.0816C2.97816 16.0002 3.19341 16.8023 3.68054 17.4241C4.11732 17.9793 4.70892 18.3107 5.14444 18.5179C5.3306 18.6046 5.51907 18.6861 5.70962 18.7623C5.27536 19.9675 4.51383 21.2084 3.67048 22.3317C2.88125 23.3833 3.09021 24.7151 3.49804 25.5838C3.90587 26.4538 4.67647 26.4145 5.96164 26.4708C6.69044 26.5028 7.4545 26.5783 8.21478 26.719C8.55841 26.783 8.96372 26.9237 9.46721 27.1348C9.76016 27.259 10.0514 27.3873 10.3408 27.5199C10.5762 27.6273 10.8266 27.7399 11.1149 27.8653C12.2981 28.3822 13.7519 28.9336 15.3631 28.9336C16.9743 28.9336 18.4281 28.3822 19.6113 27.8653C19.8996 27.7399 20.1488 27.6273 20.3854 27.5199L20.438 27.4961C20.7153 27.3707 20.976 27.2527 21.259 27.1348C21.7625 26.9237 22.1678 26.7842 22.5115 26.7203C23.2717 26.5795 24.0358 26.5028 24.7633 26.4708C26.0497 26.4145 27.0477 26.4538 27.4568 25.5838C27.8646 24.7151 28.0735 23.3833 27.2843 22.3317C26.446 21.2161 25.6882 19.9841 25.2527 18.7866C25.439 18.7137 25.6605 18.6267 25.8821 18.5243C26.3289 18.3209 26.9533 17.9844 27.39 17.4023C27.8973 16.7268 28.0421 15.8748 27.7526 14.9549C27.1748 13.1242 25.4969 12.6355 24.5139 12.4423C24.2483 12.3898 23.9927 12.3514 23.7787 12.3207L23.7536 12.3169L23.6378 12.299C23.5043 9.74925 22.7932 6.5229 21.4967 4.89812C20.0366 3.06992 17.942 2.06689 15.5001 2.06689Z" stroke="#303841" stroke-width="2.06667"/>
</svg>
