<svg width="24" height="25" viewBox="0 0 24 25" fill="none" xmlns="http://www.w3.org/2000/svg">
<g clip-path="url(#clip0)">
<path d="M11.9383 0.125488C5.35551 0.125488 0 5.481 0 12.0638C0 18.6466 5.35551 24.002 11.9383 24.002C18.521 24.002 23.8765 18.6466 23.8765 12.0637C23.8765 5.48093 18.521 0.125488 11.9383 0.125488ZM11.9383 21.9934C6.46304 21.9934 2.00857 17.539 2.00857 12.0638C2.00857 6.58859 6.46304 2.13406 11.9383 2.13406C17.4135 2.13406 21.8679 6.58852 21.8679 12.0638C21.8679 17.5391 17.4135 21.9934 11.9383 21.9934Z" fill="#F68B1E"/>
<path d="M11.9383 4.60791C9.55611 4.60791 7.61804 6.54598 7.61804 8.92814C7.61804 9.48277 8.06769 9.93242 8.62233 9.93242C9.17696 9.93242 9.62661 9.48277 9.62661 8.92814C9.62661 7.6535 10.6636 6.61648 11.9383 6.61648C13.2129 6.61648 14.2499 7.6535 14.2499 8.92814C14.2499 10.2028 13.2129 11.2398 11.9383 11.2398C11.3836 11.2398 10.934 11.6895 10.934 12.2441V14.5148C10.934 15.0694 11.3836 15.5191 11.9383 15.5191C12.4929 15.5191 12.9426 15.0694 12.9426 14.5148V13.1305C14.8421 12.6767 16.2585 10.9646 16.2585 8.92807C16.2585 6.54598 14.3204 4.60791 11.9383 4.60791Z" fill="#F68B1E"/>
<path d="M11.9383 19.3338C12.7148 19.3338 13.3442 18.7044 13.3442 17.9279C13.3442 17.1514 12.7148 16.522 11.9383 16.522C11.1618 16.522 10.5323 17.1514 10.5323 17.9279C10.5323 18.7044 11.1618 19.3338 11.9383 19.3338Z" fill="#F68B1E"/>
</g>
<defs>
<clipPath id="clip0">
<rect width="23.8765" height="23.8765" fill="white" transform="translate(0 0.125488)"/>
</clipPath>
</defs>
</svg>
