<svg width="27" height="28" viewBox="0 0 27 28" fill="none" xmlns="http://www.w3.org/2000/svg">
<g clip-path="url(#clip0)">
<path d="M23.0176 4.65033C20.4709 2.10371 17.0849 0.701172 13.4834 0.701172C9.88185 0.701172 6.49589 2.10371 3.94916 4.65033C1.40254 7.19701 0 10.583 0 14.1846C0 17.7861 1.40254 21.1721 3.94916 23.7188C6.49589 26.2654 9.88185 27.668 13.4834 27.668C17.0849 27.668 20.4709 26.2654 23.0176 23.7188C25.5643 21.1721 26.9668 17.7861 26.9668 14.1846C26.9668 10.583 25.5643 7.19701 23.0176 4.65033ZM10.9262 2.55872C10.474 2.99867 9.98514 3.52294 9.49605 4.13317C8.65028 5.18851 7.94604 6.32438 7.39522 7.51887H3.62619C5.30967 5.03735 7.9048 3.22278 10.9262 2.55872ZM2.72275 9.09896H6.76877C6.30828 10.4745 6.0404 11.9132 5.97046 13.3945H1.60695C1.7076 11.8666 2.09746 10.4167 2.72275 9.09896ZM1.60695 14.9746H5.97046C6.0404 16.4559 6.30823 17.8947 6.76877 19.2702H2.72275C2.09746 17.9524 1.7076 16.5025 1.60695 14.9746ZM3.62619 20.8503H7.39522C7.94604 22.0447 8.65028 23.1806 9.49605 24.236C9.98509 24.8462 10.4739 25.3705 10.9262 25.8104C7.9048 25.1464 5.30967 23.3318 3.62619 20.8503ZM12.6934 25.2876C12.1307 24.8025 11.4311 24.1238 10.729 23.2478C10.1151 22.4817 9.58927 21.6817 9.15122 20.8503H12.6934V25.2876ZM12.6934 19.2702H8.4386C7.92502 17.91 7.62923 16.4754 7.55254 14.9746H12.6934V19.2702ZM12.6934 13.3945H7.55254C7.62928 11.894 7.92544 10.4594 8.43924 9.09896H12.6934V13.3945ZM12.6934 7.51887H9.15122C9.58027 6.70449 10.0937 5.9203 10.6914 5.16839C11.4024 4.27411 12.1186 3.57924 12.6934 3.08373V7.51887ZM25.3598 13.3945H20.9963C20.9264 11.9132 20.6586 10.4745 20.198 9.09896H24.244C24.8693 10.4167 25.2592 11.8666 25.3598 13.3945ZM23.3406 7.51887H19.5716C19.0208 6.32443 18.3165 5.18851 17.4707 4.13317C16.9817 3.52294 16.4929 2.99867 16.0406 2.55872C19.062 3.22278 21.6572 5.03735 23.3406 7.51887ZM14.2734 3.08152C14.8361 3.56666 15.5357 4.2453 16.2377 5.1213C16.8517 5.88743 17.3775 6.68743 17.8156 7.51887H14.2734V3.08152ZM14.2734 9.09896H18.5282C19.0418 10.4591 19.3376 11.8938 19.4142 13.3945H14.2734V9.09896ZM14.2734 14.9746H19.4142C19.3375 16.4752 19.0413 17.9097 18.5275 19.2702H14.2734V14.9746ZM14.2734 25.2854V20.8503H17.8156C17.3865 21.6646 16.8731 22.4488 16.2754 23.2007C15.5644 24.095 14.8483 24.7898 14.2734 25.2854ZM16.0406 25.8104C16.4929 25.3705 16.9817 24.8462 17.4708 24.236C18.3166 23.1806 19.0208 22.0448 19.5716 20.8503H23.3407C21.6572 23.3318 19.062 25.1464 16.0406 25.8104ZM24.244 19.2702H20.198C20.6585 17.8947 20.9264 16.4559 20.9963 14.9746H25.3598C25.2592 16.5025 24.8693 17.9524 24.244 19.2702Z" fill="#F68B1E"/>
</g>
<defs>
<clipPath id="clip0">
<rect width="26.9668" height="26.9668" fill="white" transform="translate(0 0.701172)"/>
</clipPath>
</defs>
</svg>
