<svg width="12" height="16" viewBox="0 0 12 16" fill="none" xmlns="http://www.w3.org/2000/svg">
<path d="M6.83597 4.19C6.3071 3.62697 5.41814 3.59515 4.84892 4.12988C4.28355 4.66228 4.25653 5.5509 4.78915 6.11643L6.94078 8.40258C7.46447 8.95874 8.35443 9.00206 8.92742 8.46229C9.4928 7.9299 9.51981 7.04128 8.9872 6.47575L6.83597 4.19ZM8.28503 7.7802C8.09905 7.95541 7.8026 7.95116 7.62296 7.76034L5.4713 5.4742C5.29278 5.28462 5.30393 4.98836 5.49082 4.81238C5.67927 4.63533 5.97596 4.64295 6.15335 4.8318L8.30502 7.11795C8.48257 7.30649 8.47364 7.60262 8.28503 7.7802Z" fill="#303841"/>
<path d="M11.1159 6.00321L7.36813 2.02124C7.27962 1.92721 7.15616 1.87387 7.02699 1.87387H5.62159V0.468466C5.62159 0.209748 5.41185 0 5.15313 0H2.34233C2.08361 0 1.87386 0.209748 1.87386 0.468466V2.16422L0.118335 4.13918C0.0421308 4.22494 0 4.33569 0 4.45043V12.7111C3.12311e-05 13.0707 0.135793 13.3992 0.35872 13.648C0.135793 13.8968 0 14.2253 0 14.5849C0 15.3599 0.630462 15.9903 1.4054 15.9903H9.83779C10.6127 15.9903 11.2432 15.3599 11.2432 14.5849C11.2432 14.2252 11.1072 13.8968 10.8842 13.648C11.1072 13.3991 11.2432 13.0707 11.2432 12.7111V6.32429C11.2432 6.20496 11.1977 6.09012 11.1159 6.00321ZM2.8108 0.936933H4.68466V1.87387H2.8108V0.936933ZM9.83779 15.0534H1.4054C1.14709 15.0534 0.936932 14.8432 0.936932 14.5849C0.936932 14.3266 1.14709 14.1164 1.4054 14.1164C1.66412 14.1164 1.87386 13.9067 1.87386 13.648C1.87386 13.3893 1.66412 13.1795 1.4054 13.1795C1.14709 13.1795 0.936932 12.9694 0.936932 12.7111C0.936932 12.4527 1.14709 12.2426 1.4054 12.2426C1.66412 12.2426 1.87386 12.0328 1.87386 11.7741C1.87386 11.5154 1.66412 11.3057 1.4054 11.3057C1.24115 11.3057 1.08356 11.3342 0.936932 11.3862V4.62854L2.5527 2.8108H6.82455L10.3063 6.51009V11.3862C10.1596 11.3342 10.002 11.3057 9.83779 11.3057C9.57907 11.3057 9.36932 11.5154 9.36932 11.7741C9.36932 12.0328 9.57907 12.2426 9.83779 12.2426C10.0961 12.2426 10.3063 12.4527 10.3063 12.7111C10.3063 12.9694 10.0961 13.1795 9.83779 13.1795C9.77311 13.1795 9.71149 13.1926 9.65543 13.2163C9.48732 13.2875 9.36932 13.4539 9.36932 13.648C9.36932 13.842 9.48732 14.0085 9.65543 14.0796C9.71149 14.1033 9.77311 14.1164 9.83779 14.1164C10.0961 14.1164 10.3063 14.3266 10.3063 14.5849C10.3063 14.8432 10.0961 15.0534 9.83779 15.0534Z" fill="#303841"/>
<path d="M6.00704 9.63398C5.91956 9.50734 5.77549 9.43176 5.62159 9.43176C5.46768 9.43176 5.32361 9.50734 5.23613 9.63398C5.22614 9.64844 4.98862 9.99305 4.7479 10.408C4.27131 11.2296 4.21619 11.5811 4.21619 11.7741C4.21619 12.549 4.84665 13.1795 5.62159 13.1795C6.39652 13.1795 7.02698 12.549 7.02698 11.7741C7.02698 11.5811 6.97186 11.2296 6.49527 10.408C6.25455 9.99305 6.01703 9.64844 6.00704 9.63398ZM5.62159 12.2426C5.36327 12.2426 5.15312 12.0324 5.15312 11.7746C5.15693 11.6314 5.35181 11.2231 5.62168 10.7685C5.89133 11.2226 6.08605 11.6307 6.09005 11.7744C6.08983 12.0326 5.87977 12.2426 5.62159 12.2426Z" fill="#303841"/>
</svg>
