<svg width="32" height="32" viewBox="0 0 32 32" fill="none" xmlns="http://www.w3.org/2000/svg">
<path d="M30.5 3.5H18.5C18.3674 3.50001 18.2402 3.55269 18.1465 3.64645C18.0527 3.74022 18 3.86739 18 4V24.5H16.1514L14.7773 23.584C14.6952 23.5292 14.5987 23.5 14.5 23.5H14V18.1514L14.916 16.7773C14.9708 16.6952 15 16.5987 15 16.5V15C15 14.8674 14.9473 14.7402 14.8535 14.6465C14.7598 14.5527 14.6326 14.5 14.5 14.5H13.7072L13.4663 14.2592C13.0426 13.8355 12.4852 13.5716 11.8888 13.5126C11.2925 13.4536 10.6942 13.603 10.1956 13.9354L9.52686 14.3812L8.85623 13.8447C8.97176 13.3358 8.91317 12.8029 8.68984 12.3313C8.93379 12.2048 9.13834 12.0138 9.2812 11.779C9.42406 11.5443 9.49974 11.2748 9.5 11V10.309L9.71118 10.2034C9.94879 10.0856 10.1486 9.90361 10.2881 9.67801C10.4275 9.45242 10.5009 9.19227 10.5 8.92706V8C10.5 7.86739 10.4473 7.74022 10.3535 7.64645C10.2598 7.55269 10.1326 7.50001 10 7.5H7.7135C7.42142 7.50001 7.13419 7.57467 6.87908 7.71691C6.62397 7.85915 6.40946 8.06423 6.2559 8.31269C6.10235 8.56115 6.01486 8.84474 6.00173 9.13653C5.98861 9.42832 6.05028 9.71861 6.18091 9.97986L6.5 10.618V11L6.50006 11.0015C5.94506 11.015 5.40429 11.1799 4.93613 11.4783C4.46797 11.7767 4.09022 12.1974 3.84363 12.6948L2.3089 15.7642C2.10628 16.1707 2.00055 16.6185 2 17.0726V18.0895C1.99961 18.4281 2.06838 18.7632 2.20209 19.0743L3.42957 21.9384L1.09314 25.2094C1.02435 25.3057 0.991946 25.4233 1.0017 25.5412C1.01146 25.6592 1.06274 25.7699 1.14642 25.8536L3.64643 28.3536C3.74021 28.4473 3.86739 28.5 4 28.5C4.13261 28.5 4.25979 28.4473 4.35358 28.3536L4.85358 27.8536C4.94733 27.7598 5 27.6326 5 27.5V25.1754L6.28552 23.5685C6.43835 23.377 6.56901 23.1688 6.67502 22.9479L7 26.5227V28C7.00001 28.1326 7.05269 28.2598 7.14646 28.3535C7.24022 28.4473 7.3674 28.5 7.5 28.5H11C11.1326 28.5 11.2598 28.4473 11.3535 28.3535C11.4473 28.2598 11.5 28.1326 11.5 28V27H12.086C12.1894 27.2924 12.3808 27.5456 12.6341 27.7247C12.8873 27.9038 13.1898 28 13.5 28C13.8102 28 14.1127 27.9038 14.3659 27.7247C14.6192 27.5456 14.8106 27.2924 14.914 27H18V28C18 28.1326 18.0527 28.2598 18.1465 28.3535C18.2402 28.4473 18.3674 28.5 18.5 28.5H20.5C20.6326 28.5 20.7598 28.4473 20.8535 28.3535C20.9473 28.2598 21 28.1326 21 28V27H28V28C28 28.1326 28.0527 28.2598 28.1465 28.3535C28.2402 28.4473 28.3674 28.5 28.5 28.5H30.5C30.6326 28.5 30.7598 28.4473 30.8536 28.3535C30.9473 28.2598 31 28.1326 31 28V4C31 3.86739 30.9473 3.74022 30.8536 3.64645C30.7598 3.55269 30.6326 3.50001 30.5 3.5ZM12 23.5V18.5H13V23.5H12ZM13.5 16C13.6326 16 13.7598 15.9473 13.8535 15.8535C13.9473 15.7598 14 15.6326 14 15.5V16.3486L13.2324 17.5H11.7676L11.234 16.6996L12.1667 16H13.5ZM9.77735 15.416L10.7504 14.7674C11.0566 14.5632 11.4241 14.4715 11.7903 14.5077C12.1566 14.544 12.4989 14.7061 12.7592 14.9663L12.7929 15H12C11.8918 15 11.7866 15.0351 11.7 15.1L10.4796 16.0153C10.1058 16.2957 9.65893 16.462 9.1928 16.4942C8.72667 16.5264 8.26118 16.4231 7.85242 16.1968L8.7311 15.0252L9.18762 15.3904C9.27049 15.4567 9.37229 15.4949 9.47831 15.4995C9.58433 15.5041 9.68906 15.4749 9.77735 15.416ZM7.54773 11.2104C7.51656 11.1446 7.50026 11.0728 7.5 11V10.2719C7.78554 10.4953 8.13745 10.6171 8.5 10.6179V11C8.49979 11.1285 8.45015 11.252 8.36136 11.3448C8.27257 11.4377 8.15145 11.4928 8.0231 11.4988C7.87663 11.3842 7.71705 11.2873 7.54773 11.2104ZM7.7135 8.5H9.5V8.92706C9.50027 9.00643 9.47829 9.08428 9.43656 9.15179C9.39484 9.2193 9.33503 9.27377 9.26392 9.30902L8.77637 9.5528L8.77639 9.55282C8.62975 9.62594 8.46009 9.6379 8.30464 9.58608C8.1492 9.53426 8.02065 9.4229 7.94721 9.27643C7.91178 9.20556 7.86002 9.14413 7.79619 9.0972C7.73236 9.05026 7.65829 9.01917 7.58009 9.00647C7.50189 8.99377 7.42179 8.99984 7.34639 9.02417C7.27099 9.04851 7.20245 9.09041 7.14643 9.14642L7.0044 9.28845C6.99325 9.1889 7.00331 9.08812 7.03392 8.99273C7.06452 8.89735 7.11498 8.80953 7.18196 8.73505C7.24895 8.66057 7.33095 8.60111 7.42256 8.5606C7.51418 8.52009 7.61333 8.49944 7.7135 8.5ZM4.73804 13.142C4.90857 12.798 5.17208 12.5087 5.49867 12.3068C5.82527 12.105 6.20189 11.9987 6.58582 12C6.89333 11.9998 7.19137 12.1064 7.42895 12.3016C7.66654 12.4969 7.82891 12.7686 7.88831 13.0703L7.31238 12.6096L6.68762 13.3904L7.94983 14.4002L7.05016 15.5998L5.81238 14.6096L5.18762 15.3904L5.86252 15.9303L5.79285 16H3.30902L4.73804 13.142ZM2.15308 25.4459L2.40645 25.0912L4 25.4099V27.2929L2.15308 25.4459ZM5.50464 22.9438L4.29965 24.45L3.04383 24.1989L4.40686 22.2906C4.45679 22.2207 4.48787 22.1391 4.49711 22.0537C4.50635 21.9683 4.49343 21.882 4.4596 21.803L3.53571 19.6473L5.9309 20.978C6.01657 21.3163 6.02267 21.6699 5.94871 22.011C5.87476 22.3521 5.72275 22.6713 5.50464 22.9438V22.9438ZM7.2428 20.5629L3.99054 18.7561C3.6904 18.5892 3.44031 18.3452 3.26616 18.0492C3.09201 17.7532 3.00012 17.416 3 17.0726C3 17.0484 3.00121 17.0242 3.00214 17H5.5V17.5C5.5 17.5882 5.5233 17.6747 5.56755 17.751C5.6118 17.8272 5.67542 17.8904 5.75196 17.9341L8.24414 19.3582C8.47353 19.4897 8.66419 19.6793 8.79689 19.908C8.9296 20.1366 8.99966 20.3963 9 20.6606V25.6096L7.94507 25.8734L7.49793 20.9547C7.49056 20.8736 7.46346 20.7954 7.41899 20.7272C7.37453 20.6589 7.31404 20.6025 7.2428 20.5629ZM10.5 27.5H8V26.8904L9.40668 26.5387L10.5 27.2676V27.5ZM10 25.7324V20.6606C9.99943 20.22 9.88267 19.7873 9.66151 19.4062C9.44034 19.0251 9.12259 18.7091 8.7403 18.49L6.5 17.2098V16.7071L6.64823 16.5589L6.8869 16.7498C7.37142 17.1379 7.95248 17.3867 8.5677 17.4695C9.18292 17.5523 9.80907 17.4659 10.3789 17.2198L11 18.1514V26.3991L10 25.7324ZM13.5 27C13.4011 27 13.3044 26.9707 13.2222 26.9157C13.14 26.8608 13.0759 26.7827 13.0381 26.6913C13.0002 26.6 12.9903 26.4994 13.0096 26.4025C13.0289 26.3055 13.0765 26.2164 13.1465 26.1464C13.2164 26.0765 13.3055 26.0289 13.4025 26.0096C13.4994 25.9903 13.6 26.0002 13.6913 26.0381C13.7827 26.0759 13.8608 26.14 13.9157 26.2222C13.9707 26.3044 14 26.4011 14 26.5C13.9999 26.6326 13.9471 26.7597 13.8534 26.8534C13.7597 26.9471 13.6326 26.9998 13.5 27ZM15.5 26H14.914C14.8106 25.7076 14.6192 25.4544 14.3659 25.2753C14.1127 25.0962 13.8102 25 13.5 25C13.1898 25 12.8873 25.0962 12.6341 25.2753C12.3808 25.4544 12.1894 25.7076 12.086 26H12V24.5H14.3486L15.5 25.2676V26ZM22 10.5V9.5H24V13.5H19V9.5H21V10.5H22ZM28 10.5V9.5H30V13.5H25V9.5H27V10.5H28ZM30 18.5H25V14.5H27V15.5H28V14.5H30V18.5ZM30 23.5H25V19.5H27V20.5H28V19.5H30V23.5ZM19 23.5V19.5H21V20.5H22V19.5H24V23.5H19ZM19 14.5H21V15.5H22V14.5H24V18.5H19V14.5ZM19 24.5H30V26H19V24.5ZM30 8.5H25V4.5H27V5.5H28V4.5H30V8.5ZM19 4.5H21V5.5H22V4.5H24V8.5H19V4.5ZM18 26H16.5V25.5H18V26ZM20 27.5H19V27H20V27.5ZM29 27.5V27H30V27.5H29Z" fill="black"/>
</svg>
