<svg width="17" height="17" viewBox="0 0 17 17" fill="none" xmlns="http://www.w3.org/2000/svg">
<path fill-rule="evenodd" clip-rule="evenodd" d="M12.4667 3.4V1.7C12.4667 0.761116 11.7056 0 10.7667 0H6.23333C5.29445 0 4.53333 0.761116 4.53333 1.7V3.4H0V4.53333H1.13333V15.3C1.13333 16.2389 1.89445 17 2.83333 17H14.1667C15.1056 17 15.8667 16.2389 15.8667 15.3V4.53333H17V3.4H12.4667ZM5.66667 1.7C5.66667 1.38704 5.92037 1.13333 6.23333 1.13333H10.7667C11.0796 1.13333 11.3333 1.38704 11.3333 1.7V3.4H5.66667V1.7ZM7.93333 7.93333V13.6H9.06667V7.93333H7.93333ZM4.53333 13.6V10.2H5.66667V13.6H4.53333ZM11.3333 10.2V13.6H12.4667V10.2H11.3333Z" fill="white"/>
</svg>
