<svg width="31" height="31" viewBox="0 0 31 31" fill="none" xmlns="http://www.w3.org/2000/svg">
<path d="M29.9221 3.1001L30.9532 3.03174C30.9257 2.61722 30.6527 2.25947 30.2601 2.1236C29.8675 1.98772 29.4317 2.10016 29.1539 2.409L29.9221 3.1001ZM28.892 9.21517C28.892 8.64447 28.4293 8.18183 27.8586 8.18183C27.288 8.18183 26.8253 8.64447 26.8253 9.21517H28.892ZM15.4778 9.38503H14.4445V9.38503L15.4778 9.38503ZM15.4778 11.3668L16.5111 11.3668V11.3668L15.4778 11.3668ZM1.03345 25.8334V24.8001C0.578227 24.8001 0.17663 25.098 0.044559 25.5336C-0.0875118 25.9693 0.0810584 26.44 0.459644 26.6928L1.03345 25.8334ZM3.09692 3.1001L4.06465 2.73776C3.92046 2.35267 3.56167 2.08971 3.15103 2.06818C2.74039 2.04665 2.35607 2.27064 2.1724 2.63855L3.09692 3.1001ZM11.3508 21.7001L12.0821 22.4302C12.335 22.1769 12.4388 21.8108 12.3565 21.4625C12.2742 21.1142 12.0175 20.8333 11.6781 20.7199L11.3508 21.7001ZM26.28 5.11175L25.5135 5.80479L25.8858 6.21656L26.4347 6.13343L26.28 5.11175ZM28.8911 3.16846C28.9976 4.77591 28.899 5.75187 28.6385 6.48644C28.3855 7.19942 27.9441 7.78707 27.1437 8.55401L28.5736 10.0462C29.4784 9.1792 30.1787 8.32623 30.5862 7.17739C30.9861 6.05013 31.0667 4.74305 30.9532 3.03174L28.8911 3.16846ZM28.892 10.7209V9.21517H26.8253V10.7209H28.892ZM14.4445 9.38503L14.4445 11.3668L16.5111 11.3668L16.5111 9.38503L14.4445 9.38503ZM14.4445 11.3668L14.4445 12.4001L16.5111 12.4001L16.5111 11.3668L14.4445 11.3668ZM21.753 2.06676C17.7151 2.06676 14.4445 5.34477 14.4445 9.38503H16.5111C16.5111 6.48315 18.8595 4.13343 21.753 4.13343V2.06676ZM26.8253 10.7209C26.8253 19.6395 19.6069 26.8668 10.706 26.8668V28.9334C20.7513 28.9334 28.892 20.7779 28.892 10.7209H26.8253ZM2.1292 3.46243C3.25217 6.46165 7.46959 12.4001 15.4778 12.4001V10.3334C8.62895 10.3334 5.00515 5.24965 4.06465 2.73776L2.1292 3.46243ZM2.1724 2.63855C0.00916445 6.9717 -0.324139 11.1744 1.24809 14.7532C2.81673 18.3238 6.1918 21.0672 11.0236 22.6803L11.6781 20.7199C7.22422 19.233 4.40886 16.8097 3.14022 13.922C1.87516 11.0424 2.05773 7.49516 4.02145 3.56165L2.1724 2.63855ZM10.6196 20.97C9.37523 22.2163 5.63405 24.8001 1.03345 24.8001V26.8668C6.33753 26.8668 10.5752 23.9395 12.0821 22.4302L10.6196 20.97ZM27.0464 4.41871C25.7418 2.97587 23.8529 2.06676 21.753 2.06676V4.13343C23.2439 4.13343 24.5838 4.77657 25.5135 5.80479L27.0464 4.41871ZM26.4347 6.13343C28.0064 5.89539 29.5399 5.06999 30.6903 3.7912L29.1539 2.409C28.311 3.34597 27.2055 3.92646 26.1252 4.09007L26.4347 6.13343ZM0.459644 26.6928C3.8504 28.9568 7.40575 28.9334 10.706 28.9334V26.8668C7.33746 26.8668 4.40693 26.8434 1.60725 24.9741L0.459644 26.6928Z" fill="#303841"/>
</svg>
