<svg width="26" height="26" viewBox="0 0 26 26" fill="none" xmlns="http://www.w3.org/2000/svg">
<path d="M14.3 13C14.3 12.282 13.7179 11.7 13 11.7C12.2821 11.7 11.7 12.282 11.7 13C11.7 13.7179 12.2821 14.3 13 14.3C13.7179 14.3 14.3 13.7179 14.3 13ZM13 13.4333C12.7607 13.4333 12.5667 13.2393 12.5667 13C12.5667 12.7606 12.7607 12.5666 13 12.5666C13.2393 12.5666 13.4333 12.7606 13.4333 13C13.4333 13.2393 13.2393 13.4333 13 13.4333Z" fill="#303841"/>
<path d="M22.6546 17.0733L16.0247 13.2435C16.0308 13.1637 16.0355 13.0831 16.0355 12.9987C16.0331 12.2653 15.7655 11.5576 15.2816 11.0066C15.7777 10.0106 16.0352 8.9127 16.0333 7.79996C16.0333 4.85338 14.1743 2.16663 12.1333 2.16663C11.894 2.16663 11.7 2.36065 11.7 2.59996V10.266C10.9622 10.6175 10.3968 11.2508 10.1313 12.0237C9.02172 12.0908 7.94304 12.4153 6.98053 12.9718C6.96445 12.9809 6.94942 12.9917 6.93334 13.0012C6.93292 10.7751 8.15167 8.72735 10.1089 7.66645L9.695 6.90515C7.45914 8.11755 6.06668 10.4567 6.06668 13C6.06668 13.1931 6.08001 13.3834 6.09567 13.5727C5.67101 13.9085 5.28634 14.2921 4.94949 14.7159C4.09721 10.7419 6.2753 6.74117 10.0759 5.30046L9.76821 4.4905C5.27513 6.1995 2.88439 11.1069 4.30817 15.6983C4.26225 15.7849 4.2138 15.8716 4.17211 15.9584C3.61098 17.1579 3.56761 18.3269 4.05299 19.165C4.17254 19.3722 4.43766 19.4433 4.64501 19.3235L5.85826 18.6221C8.64954 22.1808 13.6335 23.1441 17.55 20.8823L17.1167 20.1326C13.6138 22.1531 9.16201 21.3287 6.6149 18.1879L7.76066 17.5265C9.6129 19.6781 12.591 20.4811 15.2737 19.552L14.9898 18.7325C12.7002 19.5273 10.1571 18.8794 8.52661 17.0859L11.287 15.4916C11.7899 15.8416 12.3872 16.0305 13 16.0333C13.1981 16.031 13.3955 16.0094 13.5893 15.9692C14.2025 16.8978 15.023 17.6712 15.9862 18.2285C17.0405 18.8449 18.2375 19.1754 19.4588 19.1874C19.6323 19.1874 19.8055 19.1807 19.9788 19.1659C21.2983 19.0518 22.3323 18.5055 22.8158 17.6665C22.8736 17.5665 22.889 17.4478 22.8588 17.3365C22.8285 17.225 22.7551 17.1304 22.6546 17.0733ZM12.5667 3.09656C13.851 3.46324 15.1667 5.38891 15.1667 7.79996C15.1686 8.70492 14.9765 9.59973 14.6034 10.4243C14.4972 10.3595 14.3874 10.3018 14.274 10.2508C14.2463 10.2379 14.2185 10.2258 14.1908 10.2135C14.0778 10.1647 13.9621 10.1226 13.8442 10.0874H13.8398C13.7194 10.054 13.5969 10.028 13.4731 10.01C13.4427 10.0051 13.4118 10.0007 13.3809 9.99688C13.2548 9.9789 13.1274 9.96874 13 9.96663C12.8551 9.96663 12.7101 9.97699 12.5667 9.99773V3.09656ZM4.64311 18.3256C4.54557 17.8274 4.58556 17.3117 4.75885 16.8346C4.93235 17.2078 5.13103 17.5688 5.35341 17.9152L4.64311 18.3256ZM6.10307 17.4825C5.75755 16.9501 5.47486 16.3795 5.26074 15.7819C5.5394 15.3403 5.87434 14.9371 6.25732 14.582C6.44436 15.3844 6.77338 16.1467 7.22893 16.8333L6.10307 17.4825ZM7.97859 16.3991C7.48517 15.67 7.15742 14.8416 7.01861 13.9724C7.14726 13.8857 7.27908 13.8027 7.41386 13.7236C8.19632 13.2702 9.06679 12.9896 9.96668 12.9007V13C9.96795 13.1515 9.98085 13.3025 10.0048 13.4519C10.0101 13.487 10.0151 13.5213 10.0217 13.556C10.0481 13.701 10.085 13.844 10.1317 13.9836C10.1374 14.0001 10.1453 14.0158 10.1512 14.0321C10.1975 14.1584 10.2521 14.2811 10.3147 14.4C10.3302 14.4299 10.345 14.4599 10.3615 14.4893C10.4332 14.6165 10.5138 14.7384 10.6027 14.8541C10.608 14.8611 10.6114 14.8689 10.6167 14.8759L7.97859 16.3991ZM11.5921 14.6465C11.1112 14.2346 10.8342 13.6332 10.8333 13C10.8333 12.8442 10.8505 12.6887 10.8845 12.5368C11.0456 11.8043 11.5741 11.2074 12.2815 10.9586C12.3834 10.9228 12.4878 10.8949 12.594 10.8754C12.6424 10.8663 12.6915 10.8614 12.7404 10.8557C12.7958 10.849 12.8519 10.8437 12.9086 10.8411C12.9653 10.8386 13.0286 10.8411 13.0885 10.8411C13.1481 10.8411 13.1951 10.8498 13.2484 10.8557C13.3709 10.8701 13.4922 10.8949 13.6107 10.9296C13.647 10.9399 13.6839 10.9478 13.7194 10.9602C13.7782 10.9806 13.8345 11.007 13.8927 11.0322C13.9507 11.0574 14.0048 11.0851 14.059 11.1158C14.1024 11.1388 14.1428 11.1625 14.183 11.1885C14.2814 11.2516 14.3743 11.3227 14.4608 11.401C14.9104 11.811 15.1667 12.3914 15.1667 13C15.1677 13.133 15.1557 13.2657 15.1307 13.3965C14.9892 14.1576 14.4524 14.7853 13.7224 15.0431C12.9924 15.301 12.1803 15.1499 11.5921 14.6465ZM19.9022 18.3017C18.6854 18.3813 17.4726 18.0944 16.4203 17.4784C15.637 17.0254 14.9595 16.4103 14.4331 15.6744C14.4608 15.6594 14.4841 15.6385 14.5114 15.623C14.6121 15.5648 14.7094 15.5011 14.8027 15.4317C14.8421 15.4028 14.8815 15.3742 14.9193 15.3452C15.0306 15.2542 15.1354 15.1556 15.2329 15.05C15.2433 15.0388 15.2555 15.0293 15.2655 15.0175C15.3715 14.8971 15.4678 14.7684 15.5537 14.6328C15.5757 14.5981 15.5939 14.5621 15.6148 14.527C15.6768 14.4208 15.7325 14.311 15.7811 14.1982C15.7915 14.1739 15.8067 14.1527 15.8167 14.1284L21.7902 17.5777C21.2579 18.0207 20.5941 18.2755 19.9022 18.3022V18.3017Z" fill="#303841"/>
<path d="M13 0C5.82038 0 0 5.82038 0 13C0 20.1796 5.82038 26 13 26C20.1796 26 26 20.1796 26 13C25.992 5.82376 20.1762 0.00804039 13 0ZM13 25.1333C6.29899 25.1333 0.866667 19.701 0.866667 13C0.866667 6.29899 6.29899 0.866667 13 0.866667C19.701 0.866667 25.1333 6.29899 25.1333 13C25.1257 19.6978 19.6978 25.1257 13 25.1333Z" fill="#303841"/>
<path d="M21.2333 13C21.2333 13.5575 21.1773 14.1134 21.066 14.6597L21.9155 14.833C22.7003 10.9929 20.9424 7.08079 17.55 5.11768L17.1167 5.86733C19.6598 7.34338 21.2274 10.0595 21.2333 13Z" fill="#303841"/>
<path d="M19.0667 13H19.9333C19.9323 11.0274 19.0921 9.14802 17.6224 7.83215L17.0443 8.47771C18.3303 9.62939 19.0656 11.2736 19.0667 13Z" fill="#303841"/>
</svg>
