<svg width="26" height="26" viewBox="0 0 26 26" fill="none" xmlns="http://www.w3.org/2000/svg">
<path d="M19.9562 19.2107L15.7885 17.5057C15.3286 17.3176 15.0312 16.8748 15.0312 16.3776V16.0859C16.2813 15.2222 17.236 14.0034 17.7771 12.5938H17.875C18.995 12.5938 19.9062 11.6825 19.9062 10.5625V7.3125C19.9062 3.50431 16.8082 0.40625 13 0.40625H6.09375V0.8125C6.09375 1.23256 6.14819 1.63922 6.24122 2.03125H4.80147L4.88028 2.50453C5.07609 3.67859 5.58959 4.72469 6.32044 5.56847C6.17297 6.13559 6.09375 6.72019 6.09375 7.3125V10.5625C6.09375 11.6825 7.00497 12.5938 8.125 12.5938H8.22291C8.76403 14.0038 9.71872 15.2222 10.9688 16.0859V16.3776C10.9688 16.8748 10.6714 17.3172 10.2115 17.5053L6.04378 19.2103C3.60628 20.2081 2.03125 22.5542 2.03125 25.1875V25.5938H23.9688V25.1875C23.9688 22.5542 22.3937 20.2081 19.9562 19.2107ZM17.7722 20.8821L14.4093 22.1431L15.2807 23.45L13.2832 24.7812H13.0601L13.366 24.1447C13.4538 23.9627 15.3278 20.0578 15.9522 18.4507L17.1206 18.9288L17.7722 20.8821ZM8.22778 20.8821L8.879 18.9288L10.0478 18.4507C10.671 20.0513 12.5462 23.9622 12.6336 24.1447L12.9395 24.7812H12.7168L10.7197 23.45L11.5911 22.1431L8.22778 20.8821ZM11.3734 19.5H14.627C14.0993 20.6911 13.4144 22.15 13 23.0242C12.586 22.1496 11.9011 20.6903 11.3734 19.5ZM18.0432 11.7642C18.1972 11.1621 18.2812 10.5353 18.2812 9.89259V9.4185C18.7529 9.58669 19.0938 10.0336 19.0938 10.5625C19.0938 11.1768 18.6351 11.6813 18.0432 11.7642ZM6.50122 2.84375C7.29869 4.75028 9.18247 6.09375 11.375 6.09375H14.2188V5.28125H11.375C9.04759 5.28125 7.1305 3.49334 6.92453 1.21875H13C16.3601 1.21875 19.0938 3.95241 19.0938 7.3125V8.94806C18.8468 8.76119 18.5599 8.62712 18.2439 8.56862C18.0696 7.6245 17.2437 6.90625 16.25 6.90625H11.0362C8.5345 6.90625 6.39681 5.22478 5.78216 2.84375H6.50122ZM7.00456 6.23919C7.23125 6.43094 7.46647 6.61294 7.71875 6.77056V8.57228C7.41691 8.63403 7.1435 8.76809 6.90625 8.94766V7.3125C6.90625 6.95053 6.94159 6.59222 7.00456 6.23919ZM6.90625 10.5625C6.90625 10.0336 7.24709 9.58669 7.71875 9.4185V9.89259C7.71875 10.5353 7.80284 11.1621 7.95681 11.7642C7.36491 11.6813 6.90625 11.1768 6.90625 10.5625ZM8.53125 9.89259V7.19916C9.30028 7.53431 10.1481 7.71875 11.0362 7.71875H16.25C16.9219 7.71875 17.4688 8.26556 17.4688 8.9375V9.89259C17.4688 12.7457 15.6788 15.2742 13 16.2264C10.3212 15.2742 8.53125 12.7461 8.53125 9.89259ZM11.7666 16.5734C12.1176 16.7562 12.4865 16.9134 12.8712 17.0414L13 17.0844L13.1284 17.0418C13.5131 16.9134 13.882 16.7566 14.233 16.5738C14.2947 17.2197 14.6543 17.7929 15.208 18.1224C15.1458 18.2849 15.0686 18.4746 14.9788 18.6879H11.0208C10.9306 18.4746 10.8534 18.2845 10.7912 18.1224C11.3453 17.7925 11.7049 17.2193 11.7666 16.5734ZM6.35131 19.9631L7.88734 19.3347L7.20972 21.3679L10.3468 22.5444L9.59319 23.675L11.2519 24.7812H6.90625V22.3438H6.09375V24.7812H2.85797C3.0095 22.6464 4.34687 20.7829 6.35131 19.9631ZM19.9062 24.7812V22.3438H19.0938V24.7812H14.7481L16.4072 23.675L15.6536 22.5444L18.7907 21.3679L18.1131 19.3347L19.6491 19.9631C21.6535 20.7833 22.9909 22.6464 23.1424 24.7812H19.9062Z" fill="black"/>
<path d="M15.4375 9.75C15.6619 9.75 15.8438 9.56812 15.8438 9.34375C15.8438 9.11938 15.6619 8.9375 15.4375 8.9375C15.2131 8.9375 15.0312 9.11938 15.0312 9.34375C15.0312 9.56812 15.2131 9.75 15.4375 9.75Z" fill="black"/>
<path d="M10.5625 9.75C10.7869 9.75 10.9688 9.56812 10.9688 9.34375C10.9688 9.11938 10.7869 8.9375 10.5625 8.9375C10.3381 8.9375 10.1562 9.11938 10.1562 9.34375C10.1562 9.56812 10.3381 9.75 10.5625 9.75Z" fill="black"/>
<path d="M14.625 13H13.8125C13.8125 13.4481 13.4481 13.8125 13 13.8125C12.5519 13.8125 12.1875 13.4481 12.1875 13H11.375C11.375 13.8962 12.1038 14.625 13 14.625C13.8962 14.625 14.625 13.8962 14.625 13Z" fill="black"/>
</svg>
