<svg width="32" height="32" viewBox="0 0 32 32" fill="none" xmlns="http://www.w3.org/2000/svg">
<g clip-path="url(#clip0)">
<path d="M6.28817 20.4365C5.99879 20.4365 5.76416 20.6712 5.76416 20.9605V23.0566C5.76416 23.346 5.99879 23.5806 6.28817 23.5806C6.57756 23.5806 6.81219 23.346 6.81219 23.0566V20.9605C6.81219 20.6712 6.57756 20.4365 6.28817 20.4365Z" fill="#E0E0E0"/>
<path d="M8.38412 21.4849C8.09473 21.4849 7.86011 21.7195 7.86011 22.0089V24.1049C7.86011 24.3943 8.09473 24.6289 8.38412 24.6289C8.67351 24.6289 8.90814 24.3943 8.90814 24.1049V22.0089C8.90814 21.7195 8.67351 21.4849 8.38412 21.4849Z" fill="#E0E0E0"/>
<path d="M18.8969 4.454C18.7417 4.20974 18.4178 4.13762 18.1736 4.29293C17.9438 4.439 17.8641 4.73677 17.9904 4.97801C18.711 6.22981 18.2804 7.82878 17.0285 8.54943C15.7767 9.27008 14.1777 8.83947 13.4571 7.5876C12.7365 6.3358 13.1671 4.73683 14.4189 4.01618C15.0799 3.63568 15.8741 3.56265 16.5933 3.81627C16.8702 3.90064 17.163 3.74468 17.2474 3.46787C17.3264 3.20848 17.1946 2.9316 16.9434 2.82955C15.0335 2.1541 12.9376 3.15477 12.2622 5.06467C11.5867 6.97457 12.5874 9.07043 14.4973 9.74588C16.4072 10.4213 18.503 9.42067 19.1785 7.51077C19.3174 7.11808 19.3884 6.70457 19.3884 6.28804C19.3886 5.6441 19.219 5.01155 18.8969 4.454Z" fill="#E0E0E0"/>
<path d="M27.767 10.4347C27.7659 10.4195 27.7633 10.4043 27.7607 10.3886C27.751 10.3284 27.731 10.2705 27.7015 10.2172V10.2136C27.7015 10.2099 27.6952 10.2078 27.6931 10.2041C27.6622 10.1561 27.6236 10.1134 27.5788 10.0778C27.5681 10.0683 27.557 10.0594 27.5453 10.0511C27.5354 10.0443 27.5275 10.0354 27.517 10.0291L21.9902 6.76397C22.0018 6.60677 22.0086 6.44956 22.0086 6.28817C22.0086 2.81533 19.1932 0 15.7204 0C12.2476 0 9.43224 2.81533 9.43224 6.28817C9.43224 6.44537 9.43906 6.60677 9.45058 6.76397L3.92538 10.0291C3.76589 10.1234 3.66803 10.295 3.66809 10.4803V24.1046C3.66803 24.2899 3.76589 24.4615 3.92538 24.5558L15.4537 31.368C15.4675 31.3747 15.4817 31.3806 15.4961 31.3858C15.5104 31.393 15.5251 31.3992 15.5401 31.4047C15.6555 31.4529 15.7853 31.4529 15.9007 31.4047C15.9159 31.3992 15.9307 31.393 15.9452 31.3858C15.9588 31.3795 15.9735 31.3759 15.9871 31.368L27.5154 24.5558C27.6749 24.4615 27.7728 24.2899 27.7727 24.1046V10.4803C27.7727 10.4646 27.768 10.4499 27.767 10.4347ZM26.2185 10.4803L23.4936 12.0906L20.6985 10.4394C21.2028 9.64913 21.5779 8.78365 21.81 7.8754L26.2185 10.4803ZM20.2599 15.2179L22.967 13.6181V17.1169L20.2599 18.7167V15.2179ZM19.7385 14.3098L18.1896 13.3943C18.8889 12.7569 19.5292 12.0577 20.1027 11.3051L22.4634 12.6995L19.7385 14.3098ZM15.7204 1.04803C18.6132 1.05124 20.9574 3.39541 20.9605 6.28817C20.9605 10.0784 16.8465 13.2429 15.7204 14.0383C14.5943 13.2429 10.4803 10.0784 10.4803 6.28817C10.4835 3.39541 12.8277 1.05124 15.7204 1.04803ZM26.7247 23.806L16.2444 29.9987V28.2967C16.2444 28.0074 16.0098 27.7727 15.7204 27.7727C15.431 27.7727 15.1964 28.0074 15.1964 28.2967V29.9987L4.71612 23.806V10.779L9.63032 7.8754C10.639 12.0114 15.221 14.9758 15.439 15.1147C15.6107 15.2239 15.8301 15.2239 16.0018 15.1147C16.4697 14.8073 16.9207 14.475 17.3527 14.119L18.7073 14.9187L15.7204 16.6841L6.23261 11.0771C5.98345 10.9298 5.66203 11.0124 5.51472 11.2616C5.3674 11.5108 5.45 11.8322 5.69917 11.9795L15.1964 17.5917V26.2007C15.1964 26.4901 15.431 26.7247 15.7204 26.7247C16.0098 26.7247 16.2444 26.4901 16.2444 26.2007V17.5917L19.214 15.8367V19.6353C19.2139 19.9247 19.4485 20.1594 19.7379 20.1595C19.8318 20.1595 19.9239 20.1343 20.0047 20.0865L23.7598 17.8689C23.9195 17.7745 24.0173 17.6027 24.0171 17.4172V12.9987L26.7247 11.3989V23.806Z" fill="#E0E0E0"/>
</g>
<defs>
<clipPath id="clip0">
<rect width="31.4408" height="31.4408" fill="white"/>
</clipPath>
</defs>
</svg>
