<svg width="20" height="20" viewBox="0 0 20 20" fill="none" xmlns="http://www.w3.org/2000/svg">
<path d="M9.61324 0.640869L10.0303 0.154276C9.79032 -0.0514407 9.43617 -0.0514407 9.19616 0.154276L9.61324 0.640869ZM0.640915 8.33144L0.223835 7.84484L3.43919e-05 8.03667V8.33144H0.640915ZM7.04972 18.5855V19.2264C7.40367 19.2264 7.6906 18.9395 7.6906 18.5855H7.04972ZM12.1768 18.5855H11.5359C11.5359 18.9395 11.8228 19.2264 12.1768 19.2264V18.5855ZM18.5856 8.33144H19.2264V8.03667L19.0026 7.84484L18.5856 8.33144ZM1.92268 19.2264H7.04972V17.9446H1.92268V19.2264ZM19.0026 7.84484L10.0303 0.154276L9.19616 1.12746L18.1685 8.81803L19.0026 7.84484ZM9.19616 0.154276L0.223835 7.84484L1.05799 8.81803L10.0303 1.12746L9.19616 0.154276ZM7.6906 18.5855V14.7402H6.40884V18.5855H7.6906ZM11.5359 14.7402V18.5855H12.8176V14.7402H11.5359ZM12.1768 19.2264H17.3038V17.9446H12.1768V19.2264ZM19.2264 17.3038V8.33144H17.9447V17.3038H19.2264ZM3.43919e-05 8.33144V17.3038H1.2818V8.33144H3.43919e-05ZM9.61324 12.8176C10.6751 12.8176 11.5359 13.6784 11.5359 14.7402H12.8176C12.8176 12.9705 11.383 11.5358 9.61324 11.5358V12.8176ZM9.61324 11.5358C7.8435 11.5358 6.40884 12.9705 6.40884 14.7402H7.6906C7.6906 13.6784 8.5514 12.8176 9.61324 12.8176V11.5358ZM17.3038 19.2264C18.3657 19.2264 19.2264 18.3656 19.2264 17.3038H17.9447C17.9447 17.6577 17.6578 17.9446 17.3038 17.9446V19.2264ZM1.92268 17.9446C1.56873 17.9446 1.2818 17.6577 1.2818 17.3038H3.43919e-05C3.43919e-05 18.3656 0.86083 19.2264 1.92268 19.2264V17.9446Z" fill="#303841"/>
</svg>
