<svg width="20" height="27" viewBox="0 0 20 27" fill="none" xmlns="http://www.w3.org/2000/svg">
<path d="M19.4068 19.8067L18.2977 14.8964C18.2729 14.7859 18.2096 14.6858 18.121 14.6156C18.004 14.5235 17.8482 14.4877 17.7024 14.5205C17.573 14.5499 17.4624 14.6281 17.3913 14.7406C17.3201 14.8531 17.2972 14.9865 17.3265 15.1159L18.2863 19.3641H1.61111L5.11958 3.83285H14.7778L16.3394 10.7457C16.3643 10.8568 16.427 10.9563 16.5161 11.027C16.6332 11.1191 16.7889 11.1544 16.9348 11.1221C17.2021 11.0613 17.3708 10.794 17.3106 10.5267C17.3106 10.5262 17.3106 10.5262 17.3101 10.5257L15.6734 3.278V1.34387C15.6734 1.06893 15.4504 0.846069 15.1756 0.846069H4.72184C4.44691 0.846069 4.22404 1.06893 4.22404 1.34387V3.28014C4.22404 3.28014 0.492711 19.7881 0.49067 19.8062C0.49062 19.807 0.49057 21.8531 0.49057 21.8531C0.49057 22.128 0.713434 22.3509 0.988367 22.3509H4.22404V23.8443C4.22404 24.1192 4.44691 24.3421 4.72184 24.3421H7.45972V25.8355C7.45972 26.1104 7.68258 26.3332 7.95752 26.3332H11.9399C12.2148 26.3332 12.4377 26.1104 12.4377 25.8355V24.3421H15.1756C15.4504 24.3421 15.6734 24.1192 15.6734 23.8443V22.3509H18.909C19.1839 22.3509 19.4068 22.128 19.4068 21.8531V19.8067ZM5.21964 1.84166H14.6778V2.83726H5.21964V1.84166ZM5.21964 23.3465V22.3509H7.45972V23.3465H5.21964ZM11.4421 25.3377H8.45531V22.3509H11.4421V25.3377ZM14.6778 23.3465H12.4377V22.3509H14.6778V23.3465ZM18.4112 21.3553H1.48616V20.3597H18.4112V21.3553Z" fill="#303841"/>
<path d="M17.3183 13.3194C17.5932 13.3194 17.8161 13.0966 17.8161 12.8216C17.8161 12.5467 17.5932 12.3239 17.3183 12.3239C17.0434 12.3239 16.8205 12.5467 16.8205 12.8216C16.8205 13.0966 17.0434 13.3194 17.3183 13.3194Z" fill="#303841"/>
<path d="M10.9101 5.32748C10.6358 5.34639 10.4288 5.58404 10.4477 5.85833L11.2442 17.4072C11.2623 17.6698 11.481 17.8708 11.7403 17.8708C11.7518 17.8708 11.7634 17.8704 11.7751 17.8696C12.0494 17.8507 12.2563 17.613 12.2374 17.3388L11.441 5.78988C11.422 5.5156 11.1855 5.30767 10.9101 5.32748Z" fill="#303841"/>
<path d="M13.3031 5.33275C13.0318 5.3772 12.8478 5.63317 12.8923 5.90447L14.7839 17.4533C14.8239 17.6974 15.035 17.8707 15.2745 17.8707C15.3012 17.8707 15.3283 17.8686 15.3556 17.8641C15.6269 17.8197 15.8108 17.5637 15.7664 17.2924L13.8747 5.74353C13.8304 5.47228 13.5748 5.28849 13.3031 5.33275Z" fill="#303841"/>
<path d="M8.20762 5.78992L7.41114 17.3388C7.39223 17.6131 7.59921 17.8507 7.8735 17.8696C7.88514 17.8705 7.89674 17.8708 7.90824 17.8708C8.16754 17.8708 8.38623 17.6699 8.40435 17.4072L9.20082 5.85837C9.21974 5.58408 9.01275 5.34643 8.73847 5.32752C8.46458 5.3084 8.22653 5.51563 8.20762 5.78992Z" fill="#303841"/>
<path d="M6.02261 5.74358L4.13098 17.2925C4.08653 17.5638 4.27047 17.8197 4.54177 17.8642C4.569 17.8686 4.59608 17.8708 4.62281 17.8708C4.8623 17.8708 5.07346 17.6975 5.11344 17.4534L7.00506 5.90452C7.04952 5.63322 6.86558 5.37725 6.59428 5.3328C6.32303 5.28834 6.06706 5.47228 6.02261 5.74358Z" fill="#303841"/>
</svg>
