<svg width="25" height="25" viewBox="0 0 25 25" fill="none" xmlns="http://www.w3.org/2000/svg">
<g clip-path="url(#clip0)">
<path d="M24.9963 4.28636C24.9963 4.28362 24.9959 4.28089 24.9958 4.27811C24.9955 4.26722 24.9949 4.25648 24.9936 4.24584C24.9931 4.24193 24.9924 4.23802 24.9918 4.23412C24.9904 4.22431 24.9885 4.21464 24.9863 4.20517C24.9854 4.20141 24.9844 4.1977 24.9834 4.19394C24.9806 4.18364 24.9774 4.17353 24.9737 4.16357C24.973 4.16167 24.9725 4.15972 24.9718 4.15786L23.9785 1.61517C23.8784 1.35896 23.6359 1.19336 23.3608 1.19336H21.5523C21.3551 1.19336 21.1954 1.35315 21.1954 1.55029C21.1954 1.74743 21.3551 1.90722 21.5523 1.90722H23.3262L24.1167 3.93079H16.6435L16.1753 1.90722H18.9352C19.1324 1.90722 19.2922 1.74743 19.2922 1.55029C19.2922 1.35315 19.1324 1.19336 18.9352 1.19336H15.7263H12.1298H4.49525C4.2201 1.19336 3.97765 1.35896 3.87752 1.61527L2.88426 4.15786C2.88353 4.15976 2.88314 4.16172 2.8824 4.16357C2.87869 4.17348 2.87547 4.18359 2.87264 4.19394C2.87162 4.1977 2.87064 4.20141 2.86976 4.20517C2.86751 4.21469 2.86571 4.22435 2.86424 4.23412C2.86366 4.23802 2.86293 4.24193 2.86244 4.24584C2.86122 4.25648 2.86053 4.26722 2.86024 4.27811C2.86019 4.28084 2.85985 4.28357 2.8598 4.28636C2.8598 4.2868 2.85975 4.28724 2.85975 4.28767V9.53152C2.85975 9.72866 3.01954 9.88845 3.21668 9.88845C3.41382 9.88845 3.57361 9.72866 3.57361 9.53152V4.64465H11.1395V10.07C11.1395 10.2822 11.2645 10.4755 11.4579 10.5626C11.5288 10.5945 11.6042 10.61 11.6791 10.61C11.8088 10.61 11.9371 10.5635 12.0376 10.4743L13.928 8.79955L15.8184 10.4743C15.9771 10.615 16.2047 10.6496 16.3982 10.5626C16.5916 10.4755 16.7166 10.2822 16.7166 10.07V4.64465H24.2824V20.6541C24.2824 20.9103 24.074 21.1187 23.8179 21.1187H17.2733C17.2733 21.1146 17.2728 21.1106 17.2728 21.1065C17.2724 21.0745 17.2712 21.0425 17.2685 21.0108C17.883 21.1737 18.5396 20.8579 18.7859 20.254C18.9154 19.9363 18.9135 19.5872 18.7804 19.271C18.7679 19.2413 18.7541 19.2124 18.7395 19.1839C18.7368 19.1787 18.7342 19.1734 18.7316 19.1682C18.7173 19.1411 18.702 19.1146 18.686 19.0887C18.6828 19.0837 18.6796 19.0788 18.6764 19.0739C18.6595 19.0473 18.6418 19.0213 18.623 18.9963C18.6227 18.9958 18.6223 18.9953 18.622 18.9949C18.6033 18.9702 18.5836 18.9463 18.5632 18.923C18.5595 18.9188 18.5559 18.9145 18.5521 18.9103C18.5319 18.8878 18.511 18.8661 18.4893 18.8451C18.4851 18.841 18.4808 18.8371 18.4765 18.8331C18.4538 18.8117 18.4305 18.791 18.4063 18.7714C18.4055 18.7708 18.4047 18.7701 18.4038 18.7695C18.38 18.7503 18.3553 18.7322 18.33 18.7147C18.3255 18.7115 18.321 18.7083 18.3163 18.7052C18.2911 18.6882 18.2652 18.6721 18.2387 18.6568C18.2365 18.6556 18.2345 18.6541 18.2322 18.6528C18.3831 18.5223 18.5022 18.3571 18.5797 18.167C18.7092 17.8493 18.7073 17.5002 18.5743 17.184C18.4579 16.9073 18.2533 16.6848 17.9912 16.5467C17.9538 16.527 17.9151 16.509 17.8754 16.4928L12.3203 14.2277L14.9061 13.4273C15.5213 13.2369 15.8678 12.5807 15.6785 11.9648C15.6078 11.7348 15.4677 11.5409 15.2868 11.3992C15.0176 11.1882 14.6577 11.093 14.3008 11.1679C14.2991 11.1683 14.2975 11.1686 14.2957 11.169C14.276 11.1735 12.2937 11.6192 10.2233 12.0229C10.1315 12.0408 10.042 12.0581 9.95377 12.0751C9.88317 12.0887 9.81355 12.102 9.74525 12.115C9.72563 12.1188 9.70595 12.1225 9.68647 12.1262C9.56588 12.1491 9.44906 12.171 9.3355 12.1921C9.2898 12.2006 9.2445 12.209 9.19992 12.2172C6.59987 12.6962 5.86946 12.7048 5.66676 12.6773C5.66598 12.6772 5.66529 12.6772 5.66451 12.677C5.66144 12.6766 5.65841 12.6761 5.65558 12.6757C5.65353 12.6753 5.65162 12.675 5.64972 12.6747C5.64835 12.6745 5.64689 12.6742 5.64557 12.674C5.63292 12.6717 5.62306 12.6693 5.61545 12.667L5.55696 12.6432L5.62985 12.4645C5.70152 12.2887 5.70044 12.0956 5.62687 11.9207C5.60846 11.8769 5.58606 11.8356 5.56008 11.7972C5.48216 11.6818 5.37198 11.592 5.24016 11.5382L3.32306 10.7565C3.14736 10.6848 2.95417 10.6859 2.77925 10.7595C2.60427 10.8331 2.4685 10.9704 2.39683 11.1461L0.0526005 16.8954C-0.0953267 17.2582 0.0795008 17.6737 0.442289 17.8216L2.35944 18.6034C2.44697 18.6391 2.53753 18.6559 2.62673 18.6559C2.90711 18.6559 3.17338 18.4889 3.28562 18.2137L3.30324 18.1705L3.74526 18.3507C3.74551 18.3508 3.74575 18.3509 3.74605 18.351C4.16883 18.5234 4.55838 18.7694 4.89553 19.0746C4.95685 19.1301 5.01641 19.1876 5.07417 19.2469C5.13192 19.3062 5.18778 19.3674 5.24172 19.4304C5.26867 19.4619 5.29518 19.4939 5.32111 19.5262C5.81239 20.1388 6.45643 20.6194 7.18352 20.9159L7.68081 21.1186H4.03819C3.78208 21.1186 3.57366 20.9102 3.57366 20.6541V19.751C3.57366 19.5538 3.41387 19.394 3.21673 19.394C3.01959 19.394 2.8598 19.5538 2.8598 19.751V20.6541C2.8598 21.3038 3.38838 21.8325 4.03819 21.8325H9.43158L14.0296 23.7073C14.1879 23.7718 14.3516 23.8025 14.5129 23.8024C15.0196 23.8024 15.5008 23.5004 15.7037 23.003C15.7869 22.799 15.8136 22.5857 15.7912 22.3807C16.0304 22.4151 16.2783 22.3836 16.5031 22.2865C16.7315 22.1878 16.9208 22.0307 17.0553 21.8324H23.818C24.4677 21.8324 24.9964 21.3038 24.9964 20.654V4.28772C24.9963 4.28724 24.9963 4.28684 24.9963 4.28636ZM12.4136 1.90722H15.4425L15.9107 3.93079H11.9453L12.4136 1.90722ZM11.2126 3.93079H3.73936L4.52982 1.90722H11.6809L11.2126 3.93079ZM16.0029 9.68389H16.0028L14.2862 8.16312C14.1841 8.07271 14.0561 8.0275 13.9281 8.0275C13.8001 8.0275 13.6721 8.07271 13.57 8.16312L11.8534 9.68389V4.64465H16.0029V9.68389ZM2.62585 17.9411L0.714856 17.1619L3.0566 11.4188L4.96759 12.1981L2.62585 17.9411ZM16.8857 20.0951L16.476 19.928C16.4758 19.9279 16.4756 19.9279 16.4755 19.9278C16.4753 19.9277 16.4752 19.9276 16.475 19.9276C16.475 19.9276 16.4749 19.9275 16.4749 19.9275L12.2086 18.188C12.0261 18.1136 11.8178 18.2012 11.7433 18.3838C11.6689 18.5663 11.7565 18.7746 11.9391 18.8491L16.2055 20.5887C16.2233 20.5959 16.2405 20.604 16.2572 20.6128C16.2619 20.6153 16.2662 20.6184 16.2708 20.6209C16.2825 20.6276 16.2943 20.6342 16.3054 20.6416C16.3107 20.6452 16.3156 20.6493 16.3207 20.653C16.3306 20.66 16.3406 20.6669 16.3498 20.6745C16.3555 20.6791 16.3605 20.6843 16.3659 20.689C16.3742 20.6964 16.3827 20.7035 16.3906 20.7114C16.396 20.7167 16.4008 20.7226 16.406 20.7282C16.4132 20.7359 16.4205 20.7435 16.4273 20.7516C16.4324 20.7578 16.4369 20.7644 16.4418 20.7708C16.4479 20.7788 16.4542 20.7866 16.4598 20.7949C16.4646 20.8019 16.4686 20.8092 16.473 20.8163C16.4781 20.8245 16.4835 20.8325 16.4881 20.841C16.4923 20.8486 16.4958 20.8566 16.4997 20.8643C16.5038 20.8727 16.5082 20.8809 16.5119 20.8894C16.5155 20.8976 16.5184 20.9061 16.5215 20.9145C16.5248 20.9229 16.5283 20.9312 16.5311 20.9398C16.5339 20.9484 16.5361 20.9573 16.5385 20.966C16.5409 20.9746 16.5436 20.9831 16.5456 20.9919C16.5476 21.0007 16.5488 21.0097 16.5504 21.0186C16.5521 21.0275 16.5539 21.0363 16.5551 21.0452C16.5563 21.0542 16.5567 21.0633 16.5574 21.0723C16.5582 21.0814 16.5592 21.0905 16.5595 21.0995C16.5598 21.1085 16.5594 21.1175 16.5593 21.1265C16.5592 21.1358 16.5593 21.145 16.5587 21.1544C16.5582 21.1632 16.5569 21.172 16.5559 21.1809C16.5549 21.1904 16.5541 21.1999 16.5525 21.2094C16.5511 21.2181 16.5489 21.2267 16.5471 21.2354C16.5451 21.245 16.5434 21.2546 16.5408 21.2642C16.5385 21.2726 16.5355 21.281 16.5328 21.2894C16.5298 21.299 16.527 21.3086 16.5234 21.318C16.5204 21.3245 16.5174 21.331 16.5147 21.3376C16.514 21.3391 16.5137 21.3407 16.5131 21.3422C16.4573 21.4709 16.3544 21.5732 16.22 21.6312C16.0721 21.695 15.9027 21.6973 15.7553 21.6371L14.9994 21.3289C14.9959 21.3275 14.9923 21.3265 14.9888 21.3252C14.9852 21.3236 14.9819 21.3218 14.9783 21.3203L11.5083 19.9054C11.3256 19.831 11.1174 19.9186 11.043 20.1012C10.9686 20.2837 11.0562 20.4921 11.2387 20.5665L14.7087 21.9814C14.7124 21.9829 14.7162 21.984 14.72 21.9853C14.7233 21.9868 14.7264 21.9886 14.7299 21.99C15.0211 22.1088 15.1615 22.4423 15.0428 22.7335C14.924 23.0248 14.5906 23.1652 14.2992 23.0464L9.63706 21.1454C9.63687 21.1453 9.63667 21.1452 9.63648 21.1451L7.45321 20.2548C7.06889 20.0981 6.71201 19.8806 6.39697 19.613C6.20794 19.4525 6.03399 19.2739 5.87815 19.0796C5.72461 18.8882 5.55618 18.7097 5.37495 18.5456C4.97623 18.1846 4.51561 17.8938 4.01573 17.6899C4.01568 17.6899 4.01564 17.6899 4.01559 17.6899L3.57298 17.5094L4.45453 15.3474L5.28761 13.3043L5.34908 13.3293C5.40693 13.3529 5.48944 13.3864 5.71148 13.3948C5.98888 13.4074 6.44779 13.3784 7.26994 13.2623C7.82918 13.1833 8.51516 13.069 9.31597 12.9217C9.33569 12.9181 9.35527 12.9145 9.37519 12.9108C9.41263 12.9039 9.45047 12.8968 9.48845 12.8898C9.51799 12.8843 9.54767 12.8788 9.5776 12.8732C9.61168 12.8668 9.6459 12.8604 9.68037 12.8539C9.71694 12.847 9.75394 12.84 9.79114 12.8329C9.82092 12.8273 9.85066 12.8217 9.88073 12.8159C9.92608 12.8073 9.97222 12.7985 10.0185 12.7896C10.0423 12.785 10.0659 12.7805 10.0899 12.7759C10.1608 12.7622 10.2326 12.7484 10.3058 12.7342C12.369 12.3329 14.3604 11.8862 14.4499 11.8661C14.4588 11.8642 14.4677 11.8632 14.4767 11.8618C14.7059 11.8279 14.9306 11.9605 14.9963 12.1744C15.0194 12.2496 15.0221 12.3263 15.0076 12.3985C14.9756 12.5573 14.8602 12.6943 14.6952 12.7454L11.1566 13.8406C11.0125 13.8852 10.912 14.0154 10.9055 14.1661C10.899 14.3167 10.9877 14.4552 11.1274 14.5121L17.6061 17.1539C17.7472 17.2114 17.8574 17.3204 17.9165 17.4609C17.9756 17.6013 17.9765 17.7564 17.9189 17.8974C17.8613 18.0385 17.7524 18.1487 17.6119 18.2078C17.5417 18.2373 17.4678 18.2522 17.3939 18.2527C17.3928 18.2527 17.3917 18.2525 17.3906 18.2525C17.3733 18.2525 17.3559 18.2519 17.3386 18.2502C17.3335 18.2498 17.3284 18.2487 17.3233 18.2481C17.31 18.2465 17.2968 18.245 17.2837 18.2424C17.2754 18.2408 17.2672 18.2384 17.2589 18.2364C17.2491 18.2341 17.2392 18.2321 17.2294 18.2292C17.2193 18.2262 17.2094 18.2223 17.1994 18.2187C17.1915 18.2159 17.1835 18.2135 17.1756 18.2104L12.9089 16.4706C12.7264 16.3961 12.5181 16.4838 12.4436 16.6664C12.3692 16.8489 12.4568 17.0572 12.6394 17.1317L17.8122 19.2409C17.8475 19.2552 17.8809 19.2728 17.912 19.2934C18.0053 19.3549 18.0783 19.4425 18.1226 19.5479C18.1743 19.6707 18.1814 19.8048 18.1439 19.9309C18.1385 19.9489 18.1322 19.9668 18.125 19.9844C18.1176 20.0026 18.1093 20.0202 18.1003 20.0372C18.0793 20.0768 18.0536 20.1125 18.025 20.1451C18.0073 20.1653 17.9883 20.1841 17.9681 20.2014C17.9648 20.2042 17.9619 20.2073 17.9586 20.2099C17.8284 20.3164 17.6542 20.3622 17.4841 20.3279C17.4496 20.3209 17.4153 20.311 17.3815 20.2972L16.8857 20.0951Z" fill="#E0E0E0"/>
</g>
<defs>
<clipPath id="clip0">
<rect width="24.9963" height="24.9963" fill="white"/>
</clipPath>
</defs>
</svg>
